<svg width="1363" height="163" viewBox="0 0 1363 163" fill="none" xmlns="http://www.w3.org/2000/svg">
<path d="M0 15C0 6.71573 6.71573 0 15 0H37V163H15C6.71573 163 0 156.284 0 148V15Z" fill="#A81D0E"/>
<rect width="1097" height="163" transform="translate(37)" fill="#F0F0F0"/>
<path d="M101.906 53.9219L94.3945 51.2383V48.0859L104.602 52.375V54.6367L101.906 53.9219ZM94.3945 56.1719L101.918 53.4297L104.602 52.7852V55.0352L94.3945 59.3242V56.1719ZM119.836 46.8555L115.195 61H111.457L117.797 43.9375H120.176L119.836 46.8555ZM123.691 61L119.039 46.8555L118.664 43.9375H121.066L127.441 61H123.691ZM123.48 54.6484V57.4023H114.469V54.6484H123.48ZM134.648 61.2344C133.664 61.2344 132.781 61.0781 132 60.7656C131.219 60.4453 130.555 60.0039 130.008 59.4414C129.469 58.8789 129.055 58.2266 128.766 57.4844C128.477 56.7344 128.332 55.9375 128.332 55.0938V54.625C128.332 53.6641 128.469 52.7852 128.742 51.9883C129.016 51.1914 129.406 50.5 129.914 49.9141C130.43 49.3281 131.055 48.8789 131.789 48.5664C132.523 48.2461 133.352 48.0859 134.273 48.0859C135.172 48.0859 135.969 48.2344 136.664 48.5312C137.359 48.8281 137.941 49.25 138.41 49.7969C138.887 50.3438 139.246 51 139.488 51.7656C139.73 52.5234 139.852 53.3672 139.852 54.2969V55.7031H129.773V53.4531H136.535V53.1953C136.535 52.7266 136.449 52.3086 136.277 51.9414C136.113 51.5664 135.863 51.2695 135.527 51.0508C135.191 50.832 134.762 50.7227 134.238 50.7227C133.793 50.7227 133.41 50.8203 133.09 51.0156C132.77 51.2109 132.508 51.4844 132.305 51.8359C132.109 52.1875 131.961 52.6016 131.859 53.0781C131.766 53.5469 131.719 54.0625 131.719 54.625V55.0938C131.719 55.6016 131.789 56.0703 131.93 56.5C132.078 56.9297 132.285 57.3008 132.551 57.6133C132.824 57.9258 133.152 58.168 133.535 58.3398C133.926 58.5117 134.367 58.5977 134.859 58.5977C135.469 58.5977 136.035 58.4805 136.559 58.2461C137.09 58.0039 137.547 57.6406 137.93 57.1562L139.57 58.9375C139.305 59.3203 138.941 59.6875 138.48 60.0391C138.027 60.3906 137.48 60.6797 136.84 60.9062C136.199 61.125 135.469 61.2344 134.648 61.2344ZM149.801 48.3203H152.859V60.5781C152.859 61.7344 152.602 62.7148 152.086 63.5195C151.578 64.332 150.867 64.9453 149.953 65.3594C149.039 65.7812 147.977 65.9922 146.766 65.9922C146.234 65.9922 145.672 65.9219 145.078 65.7812C144.492 65.6406 143.93 65.4219 143.391 65.125C142.859 64.8281 142.414 64.4531 142.055 64L143.543 62.0078C143.934 62.4609 144.387 62.8125 144.902 63.0625C145.418 63.3203 145.988 63.4492 146.613 63.4492C147.223 63.4492 147.738 63.3359 148.16 63.1094C148.582 62.8906 148.906 62.5664 149.133 62.1367C149.359 61.7148 149.473 61.2031 149.473 60.6016V51.25L149.801 48.3203ZM141.27 54.8125V54.5664C141.27 53.5977 141.387 52.7188 141.621 51.9297C141.863 51.1328 142.203 50.4492 142.641 49.8789C143.086 49.3086 143.625 48.8672 144.258 48.5547C144.891 48.2422 145.605 48.0859 146.402 48.0859C147.246 48.0859 147.953 48.2422 148.523 48.5547C149.094 48.8672 149.562 49.3125 149.93 49.8906C150.297 50.4609 150.582 51.1367 150.785 51.918C150.996 52.6914 151.16 53.5391 151.277 54.4609V55C151.16 55.8828 150.984 56.7031 150.75 57.4609C150.516 58.2188 150.207 58.8828 149.824 59.4531C149.441 60.0156 148.965 60.4531 148.395 60.7656C147.832 61.0781 147.16 61.2344 146.379 61.2344C145.598 61.2344 144.891 61.0742 144.258 60.7539C143.633 60.4336 143.098 59.9844 142.652 59.4062C142.207 58.8281 141.863 58.1484 141.621 57.3672C141.387 56.5859 141.27 55.7344 141.27 54.8125ZM144.645 54.5664V54.8125C144.645 55.3359 144.695 55.8242 144.797 56.2773C144.898 56.7305 145.055 57.1328 145.266 57.4844C145.484 57.8281 145.754 58.0977 146.074 58.293C146.402 58.4805 146.789 58.5742 147.234 58.5742C147.852 58.5742 148.355 58.4453 148.746 58.1875C149.137 57.9219 149.43 57.5586 149.625 57.0977C149.82 56.6367 149.934 56.1055 149.965 55.5039V53.9688C149.949 53.4766 149.883 53.0352 149.766 52.6445C149.648 52.2461 149.484 51.9062 149.273 51.625C149.062 51.3438 148.789 51.125 148.453 50.9688C148.117 50.8125 147.719 50.7344 147.258 50.7344C146.812 50.7344 146.426 50.8359 146.098 51.0391C145.777 51.2344 145.508 51.5039 145.289 51.8477C145.078 52.1914 144.918 52.5977 144.809 53.0664C144.699 53.5273 144.645 54.0273 144.645 54.5664ZM159.047 48.3203V61H155.66V48.3203H159.047ZM155.449 45.0156C155.449 44.5234 155.621 44.1172 155.965 43.7969C156.309 43.4766 156.77 43.3164 157.348 43.3164C157.918 43.3164 158.375 43.4766 158.719 43.7969C159.07 44.1172 159.246 44.5234 159.246 45.0156C159.246 45.5078 159.07 45.9141 158.719 46.2344C158.375 46.5547 157.918 46.7148 157.348 46.7148C156.77 46.7148 156.309 46.5547 155.965 46.2344C155.621 45.9141 155.449 45.5078 155.449 45.0156ZM168.691 57.4961C168.691 57.2539 168.621 57.0352 168.48 56.8398C168.34 56.6445 168.078 56.4648 167.695 56.3008C167.32 56.1289 166.777 55.9727 166.066 55.832C165.426 55.6914 164.828 55.5156 164.273 55.3047C163.727 55.0859 163.25 54.8242 162.844 54.5195C162.445 54.2148 162.133 53.8555 161.906 53.4414C161.68 53.0195 161.566 52.5391 161.566 52C161.566 51.4688 161.68 50.9688 161.906 50.5C162.141 50.0312 162.473 49.6172 162.902 49.2578C163.34 48.8906 163.871 48.6055 164.496 48.4023C165.129 48.1914 165.84 48.0859 166.629 48.0859C167.73 48.0859 168.676 48.2617 169.465 48.6133C170.262 48.9648 170.871 49.4492 171.293 50.0664C171.723 50.6758 171.938 51.3711 171.938 52.1523H168.562C168.562 51.8242 168.492 51.5312 168.352 51.2734C168.219 51.0078 168.008 50.8008 167.719 50.6523C167.438 50.4961 167.07 50.418 166.617 50.418C166.242 50.418 165.918 50.4844 165.645 50.6172C165.371 50.7422 165.16 50.9141 165.012 51.1328C164.871 51.3438 164.801 51.5781 164.801 51.8359C164.801 52.0312 164.84 52.207 164.918 52.3633C165.004 52.5117 165.141 52.6484 165.328 52.7734C165.516 52.8984 165.758 53.0156 166.055 53.125C166.359 53.2266 166.734 53.3203 167.18 53.4062C168.094 53.5938 168.91 53.8398 169.629 54.1445C170.348 54.4414 170.918 54.8477 171.34 55.3633C171.762 55.8711 171.973 56.5391 171.973 57.3672C171.973 57.9297 171.848 58.4453 171.598 58.9141C171.348 59.3828 170.988 59.793 170.52 60.1445C170.051 60.4883 169.488 60.7578 168.832 60.9531C168.184 61.1406 167.453 61.2344 166.641 61.2344C165.461 61.2344 164.461 61.0234 163.641 60.6016C162.828 60.1797 162.211 59.6445 161.789 58.9961C161.375 58.3398 161.168 57.668 161.168 56.9805H164.367C164.383 57.4414 164.5 57.8125 164.719 58.0938C164.945 58.375 165.23 58.5781 165.574 58.7031C165.926 58.8281 166.305 58.8906 166.711 58.8906C167.148 58.8906 167.512 58.832 167.801 58.7148C168.09 58.5898 168.309 58.4258 168.457 58.2227C168.613 58.0117 168.691 57.7695 168.691 57.4961ZM178.113 43.9375V61H174.609V43.9375H178.113ZM189.223 48.3203H192.281V60.5781C192.281 61.7344 192.023 62.7148 191.508 63.5195C191 64.332 190.289 64.9453 189.375 65.3594C188.461 65.7812 187.398 65.9922 186.188 65.9922C185.656 65.9922 185.094 65.9219 184.5 65.7812C183.914 65.6406 183.352 65.4219 182.812 65.125C182.281 64.8281 181.836 64.4531 181.477 64L182.965 62.0078C183.355 62.4609 183.809 62.8125 184.324 63.0625C184.84 63.3203 185.41 63.4492 186.035 63.4492C186.645 63.4492 187.16 63.3359 187.582 63.1094C188.004 62.8906 188.328 62.5664 188.555 62.1367C188.781 61.7148 188.895 61.2031 188.895 60.6016V51.25L189.223 48.3203ZM180.691 54.8125V54.5664C180.691 53.5977 180.809 52.7188 181.043 51.9297C181.285 51.1328 181.625 50.4492 182.062 49.8789C182.508 49.3086 183.047 48.8672 183.68 48.5547C184.312 48.2422 185.027 48.0859 185.824 48.0859C186.668 48.0859 187.375 48.2422 187.945 48.5547C188.516 48.8672 188.984 49.3125 189.352 49.8906C189.719 50.4609 190.004 51.1367 190.207 51.918C190.418 52.6914 190.582 53.5391 190.699 54.4609V55C190.582 55.8828 190.406 56.7031 190.172 57.4609C189.938 58.2188 189.629 58.8828 189.246 59.4531C188.863 60.0156 188.387 60.4531 187.816 60.7656C187.254 61.0781 186.582 61.2344 185.801 61.2344C185.02 61.2344 184.312 61.0742 183.68 60.7539C183.055 60.4336 182.52 59.9844 182.074 59.4062C181.629 58.8281 181.285 58.1484 181.043 57.3672C180.809 56.5859 180.691 55.7344 180.691 54.8125ZM184.066 54.5664V54.8125C184.066 55.3359 184.117 55.8242 184.219 56.2773C184.32 56.7305 184.477 57.1328 184.688 57.4844C184.906 57.8281 185.176 58.0977 185.496 58.293C185.824 58.4805 186.211 58.5742 186.656 58.5742C187.273 58.5742 187.777 58.4453 188.168 58.1875C188.559 57.9219 188.852 57.5586 189.047 57.0977C189.242 56.6367 189.355 56.1055 189.387 55.5039V53.9688C189.371 53.4766 189.305 53.0352 189.188 52.6445C189.07 52.2461 188.906 51.9062 188.695 51.625C188.484 51.3438 188.211 51.125 187.875 50.9688C187.539 50.8125 187.141 50.7344 186.68 50.7344C186.234 50.7344 185.848 50.8359 185.52 51.0391C185.199 51.2344 184.93 51.5039 184.711 51.8477C184.5 52.1914 184.34 52.5977 184.23 53.0664C184.121 53.5273 184.066 54.0273 184.066 54.5664ZM198.211 51.0273V61H194.836V48.3203H198L198.211 51.0273ZM197.719 54.2148H196.805C196.805 53.2773 196.926 52.4336 197.168 51.6836C197.41 50.9258 197.75 50.2812 198.188 49.75C198.625 49.2109 199.145 48.8008 199.746 48.5195C200.355 48.2305 201.035 48.0859 201.785 48.0859C202.379 48.0859 202.922 48.1719 203.414 48.3438C203.906 48.5156 204.328 48.7891 204.68 49.1641C205.039 49.5391 205.312 50.0352 205.5 50.6523C205.695 51.2695 205.793 52.0234 205.793 52.9141V61H202.395V52.9023C202.395 52.3398 202.316 51.9023 202.16 51.5898C202.004 51.2773 201.773 51.0586 201.469 50.9336C201.172 50.8008 200.805 50.7344 200.367 50.7344C199.914 50.7344 199.52 50.8242 199.184 51.0039C198.855 51.1836 198.582 51.4336 198.363 51.7539C198.152 52.0664 197.992 52.4336 197.883 52.8555C197.773 53.2773 197.719 53.7305 197.719 54.2148ZM211.922 48.3203V61H208.535V48.3203H211.922ZM208.324 45.0156C208.324 44.5234 208.496 44.1172 208.84 43.7969C209.184 43.4766 209.645 43.3164 210.223 43.3164C210.793 43.3164 211.25 43.4766 211.594 43.7969C211.945 44.1172 212.121 44.5234 212.121 45.0156C212.121 45.5078 211.945 45.9141 211.594 46.2344C211.25 46.5547 210.793 46.7148 210.223 46.7148C209.645 46.7148 209.184 46.5547 208.84 46.2344C208.496 45.9141 208.324 45.5078 208.324 45.0156ZM221.566 57.4961C221.566 57.2539 221.496 57.0352 221.355 56.8398C221.215 56.6445 220.953 56.4648 220.57 56.3008C220.195 56.1289 219.652 55.9727 218.941 55.832C218.301 55.6914 217.703 55.5156 217.148 55.3047C216.602 55.0859 216.125 54.8242 215.719 54.5195C215.32 54.2148 215.008 53.8555 214.781 53.4414C214.555 53.0195 214.441 52.5391 214.441 52C214.441 51.4688 214.555 50.9688 214.781 50.5C215.016 50.0312 215.348 49.6172 215.777 49.2578C216.215 48.8906 216.746 48.6055 217.371 48.4023C218.004 48.1914 218.715 48.0859 219.504 48.0859C220.605 48.0859 221.551 48.2617 222.34 48.6133C223.137 48.9648 223.746 49.4492 224.168 50.0664C224.598 50.6758 224.812 51.3711 224.812 52.1523H221.438C221.438 51.8242 221.367 51.5312 221.227 51.2734C221.094 51.0078 220.883 50.8008 220.594 50.6523C220.312 50.4961 219.945 50.418 219.492 50.418C219.117 50.418 218.793 50.4844 218.52 50.6172C218.246 50.7422 218.035 50.9141 217.887 51.1328C217.746 51.3438 217.676 51.5781 217.676 51.8359C217.676 52.0312 217.715 52.207 217.793 52.3633C217.879 52.5117 218.016 52.6484 218.203 52.7734C218.391 52.8984 218.633 53.0156 218.93 53.125C219.234 53.2266 219.609 53.3203 220.055 53.4062C220.969 53.5938 221.785 53.8398 222.504 54.1445C223.223 54.4414 223.793 54.8477 224.215 55.3633C224.637 55.8711 224.848 56.5391 224.848 57.3672C224.848 57.9297 224.723 58.4453 224.473 58.9141C224.223 59.3828 223.863 59.793 223.395 60.1445C222.926 60.4883 222.363 60.7578 221.707 60.9531C221.059 61.1406 220.328 61.2344 219.516 61.2344C218.336 61.2344 217.336 61.0234 216.516 60.6016C215.703 60.1797 215.086 59.6445 214.664 58.9961C214.25 58.3398 214.043 57.668 214.043 56.9805H217.242C217.258 57.4414 217.375 57.8125 217.594 58.0938C217.82 58.375 218.105 58.5781 218.449 58.7031C218.801 58.8281 219.18 58.8906 219.586 58.8906C220.023 58.8906 220.387 58.832 220.676 58.7148C220.965 58.5898 221.184 58.4258 221.332 58.2227C221.488 58.0117 221.566 57.7695 221.566 57.4961Z" fill="#888888"/>
<path d="M109.219 107.422H100.734V101.07H109.219C110.375 101.07 111.312 100.875 112.031 100.484C112.75 100.094 113.273 99.5547 113.602 98.8672C113.945 98.1641 114.117 97.375 114.117 96.5C114.117 95.5625 113.945 94.6953 113.602 93.8984C113.273 93.1016 112.75 92.4609 112.031 91.9766C111.312 91.4766 110.375 91.2266 109.219 91.2266H103.828V119H95.6016V84.875H109.219C111.953 84.875 114.305 85.375 116.273 86.375C118.258 87.375 119.781 88.75 120.844 90.5C121.906 92.2344 122.438 94.2188 122.438 96.4531C122.438 98.6562 121.906 100.578 120.844 102.219C119.781 103.859 118.258 105.141 116.273 106.062C114.305 106.969 111.953 107.422 109.219 107.422ZM134.461 99.9219V119H126.562V93.6406H133.945L134.461 99.9219ZM141.961 93.4531L141.82 100.789C141.508 100.758 141.086 100.719 140.555 100.672C140.023 100.625 139.578 100.602 139.219 100.602C138.297 100.602 137.5 100.711 136.828 100.93C136.172 101.133 135.625 101.445 135.188 101.867C134.766 102.273 134.453 102.789 134.25 103.414C134.062 104.039 133.977 104.766 133.992 105.594L132.562 104.656C132.562 102.953 132.727 101.406 133.055 100.016C133.398 98.6094 133.883 97.3984 134.508 96.3828C135.133 95.3516 135.891 94.5625 136.781 94.0156C137.672 93.4531 138.672 93.1719 139.781 93.1719C140.172 93.1719 140.555 93.1953 140.93 93.2422C141.32 93.2891 141.664 93.3594 141.961 93.4531ZM142.852 106.578V106.086C142.852 104.227 143.117 102.516 143.648 100.953C144.18 99.375 144.961 98.0078 145.992 96.8516C147.023 95.6953 148.297 94.7969 149.812 94.1562C151.328 93.5 153.078 93.1719 155.062 93.1719C157.062 93.1719 158.82 93.5 160.336 94.1562C161.867 94.7969 163.148 95.6953 164.18 96.8516C165.211 98.0078 165.992 99.375 166.523 100.953C167.055 102.516 167.32 104.227 167.32 106.086V106.578C167.32 108.422 167.055 110.133 166.523 111.711C165.992 113.273 165.211 114.641 164.18 115.812C163.148 116.969 161.875 117.867 160.359 118.508C158.844 119.148 157.094 119.469 155.109 119.469C153.125 119.469 151.367 119.148 149.836 118.508C148.305 117.867 147.023 116.969 145.992 115.812C144.961 114.641 144.18 113.273 143.648 111.711C143.117 110.133 142.852 108.422 142.852 106.578ZM150.75 106.086V106.578C150.75 107.531 150.82 108.422 150.961 109.25C151.102 110.078 151.336 110.805 151.664 111.43C151.992 112.039 152.438 112.516 153 112.859C153.562 113.203 154.266 113.375 155.109 113.375C155.938 113.375 156.625 113.203 157.172 112.859C157.734 112.516 158.18 112.039 158.508 111.43C158.836 110.805 159.07 110.078 159.211 109.25C159.352 108.422 159.422 107.531 159.422 106.578V106.086C159.422 105.164 159.352 104.297 159.211 103.484C159.07 102.656 158.836 101.93 158.508 101.305C158.18 100.664 157.734 100.164 157.172 99.8047C156.609 99.4453 155.906 99.2656 155.062 99.2656C154.234 99.2656 153.539 99.4453 152.977 99.8047C152.43 100.164 151.992 100.664 151.664 101.305C151.336 101.93 151.102 102.656 150.961 103.484C150.82 104.297 150.75 105.164 150.75 106.086ZM171.422 93.6406H179.344V119.82C179.344 121.852 178.953 123.562 178.172 124.953C177.391 126.359 176.273 127.422 174.82 128.141C173.367 128.875 171.633 129.242 169.617 129.242C168.945 129.242 168.328 129.211 167.766 129.148C167.188 129.102 166.555 129 165.867 128.844V122.867C166.273 122.93 166.648 122.977 166.992 123.008C167.336 123.055 167.711 123.078 168.117 123.078C168.836 123.078 169.438 122.961 169.922 122.727C170.406 122.492 170.773 122.133 171.023 121.648C171.289 121.164 171.422 120.555 171.422 119.82V93.6406ZM170.836 87.1016C170.836 85.9766 171.242 85.0547 172.055 84.3359C172.867 83.6172 173.922 83.2578 175.219 83.2578C176.516 83.2578 177.57 83.6172 178.383 84.3359C179.195 85.0547 179.602 85.9766 179.602 87.1016C179.602 88.2266 179.195 89.1484 178.383 89.8672C177.57 90.5859 176.516 90.9453 175.219 90.9453C173.922 90.9453 172.867 90.5859 172.055 89.8672C171.242 89.1484 170.836 88.2266 170.836 87.1016ZM196.102 119.469C194.039 119.469 192.195 119.148 190.57 118.508C188.945 117.852 187.57 116.953 186.445 115.812C185.336 114.672 184.484 113.359 183.891 111.875C183.312 110.391 183.023 108.82 183.023 107.164V106.273C183.023 104.414 183.281 102.695 183.797 101.117C184.312 99.5234 185.078 98.1328 186.094 96.9453C187.109 95.7578 188.383 94.8359 189.914 94.1797C191.445 93.5078 193.227 93.1719 195.258 93.1719C197.055 93.1719 198.664 93.4609 200.086 94.0391C201.508 94.6172 202.711 95.4453 203.695 96.5234C204.695 97.6016 205.453 98.9062 205.969 100.438C206.5 101.969 206.766 103.688 206.766 105.594V108.805H186.047V103.859H199.055V103.25C199.07 102.406 198.922 101.688 198.609 101.094C198.312 100.5 197.875 100.047 197.297 99.7344C196.719 99.4219 196.016 99.2656 195.188 99.2656C194.328 99.2656 193.617 99.4531 193.055 99.8281C192.508 100.203 192.078 100.719 191.766 101.375C191.469 102.016 191.258 102.758 191.133 103.602C191.008 104.445 190.945 105.336 190.945 106.273V107.164C190.945 108.102 191.07 108.953 191.32 109.719C191.586 110.484 191.961 111.141 192.445 111.688C192.945 112.219 193.539 112.633 194.227 112.93C194.93 113.227 195.727 113.375 196.617 113.375C197.695 113.375 198.758 113.172 199.805 112.766C200.852 112.359 201.75 111.688 202.5 110.75L206.086 115.016C205.57 115.75 204.836 116.461 203.883 117.148C202.945 117.836 201.82 118.398 200.508 118.836C199.195 119.258 197.727 119.469 196.102 119.469ZM220.688 113.375C221.422 113.375 222.047 113.242 222.562 112.977C223.094 112.695 223.492 112.305 223.758 111.805C224.039 111.289 224.172 110.672 224.156 109.953H231.586C231.602 111.859 231.133 113.531 230.18 114.969C229.242 116.391 227.961 117.5 226.336 118.297C224.727 119.078 222.906 119.469 220.875 119.469C218.891 119.469 217.156 119.148 215.672 118.508C214.188 117.852 212.945 116.945 211.945 115.789C210.961 114.617 210.219 113.25 209.719 111.688C209.234 110.125 208.992 108.43 208.992 106.602V106.062C208.992 104.234 209.234 102.539 209.719 100.977C210.219 99.3984 210.961 98.0312 211.945 96.875C212.945 95.7031 214.18 94.7969 215.648 94.1562C217.133 93.5 218.859 93.1719 220.828 93.1719C222.938 93.1719 224.797 93.5703 226.406 94.3672C228.031 95.1641 229.305 96.3203 230.227 97.8359C231.148 99.3516 231.602 101.188 231.586 103.344H224.156C224.172 102.578 224.055 101.891 223.805 101.281C223.555 100.672 223.164 100.188 222.633 99.8281C222.117 99.4531 221.453 99.2656 220.641 99.2656C219.828 99.2656 219.172 99.4453 218.672 99.8047C218.172 100.164 217.789 100.664 217.523 101.305C217.273 101.93 217.102 102.648 217.008 103.461C216.93 104.273 216.891 105.141 216.891 106.062V106.602C216.891 107.539 216.93 108.422 217.008 109.25C217.102 110.062 217.281 110.781 217.547 111.406C217.812 112.016 218.195 112.5 218.695 112.859C219.195 113.203 219.859 113.375 220.688 113.375ZM248.32 93.6406V99.125H233.039V93.6406H248.32ZM236.25 87.3359H244.148V110.727C244.148 111.398 244.227 111.922 244.383 112.297C244.539 112.656 244.805 112.914 245.18 113.07C245.57 113.211 246.086 113.281 246.727 113.281C247.18 113.281 247.555 113.273 247.852 113.258C248.148 113.227 248.43 113.188 248.695 113.141V118.789C248.023 119.008 247.32 119.172 246.586 119.281C245.852 119.406 245.07 119.469 244.242 119.469C242.555 119.469 241.109 119.203 239.906 118.672C238.719 118.141 237.812 117.305 237.188 116.164C236.562 115.023 236.25 113.539 236.25 111.711V87.3359ZM286.781 98.4219V104.75H269.273V98.4219H286.781ZM272.016 84.875V119H263.789V84.875H272.016ZM292.312 84.875V119H284.109V84.875H292.312ZM305.508 93.6406V119H297.586V93.6406H305.508ZM297.117 87.1016C297.117 85.9766 297.523 85.0547 298.336 84.3359C299.148 83.6172 300.203 83.2578 301.5 83.2578C302.797 83.2578 303.852 83.6172 304.664 84.3359C305.477 85.0547 305.883 85.9766 305.883 87.1016C305.883 88.2266 305.477 89.1484 304.664 89.8672C303.852 90.5859 302.797 90.9453 301.5 90.9453C300.203 90.9453 299.148 90.5859 298.336 89.8672C297.523 89.1484 297.117 88.2266 297.117 87.1016ZM326.32 93.6406H333.492V118.016C333.492 120.359 332.953 122.344 331.875 123.969C330.797 125.609 329.289 126.852 327.352 127.695C325.43 128.555 323.18 128.984 320.602 128.984C319.461 128.984 318.297 128.836 317.109 128.539C315.922 128.258 314.812 127.836 313.781 127.273C312.75 126.711 311.883 126.016 311.18 125.188L314.484 120.547C315.125 121.266 315.93 121.875 316.898 122.375C317.867 122.891 319.008 123.148 320.32 123.148C321.461 123.148 322.414 122.945 323.18 122.539C323.961 122.133 324.555 121.539 324.961 120.758C325.367 119.992 325.57 119.062 325.57 117.969V99.6406L326.32 93.6406ZM309.469 106.625V106.133C309.469 104.211 309.703 102.461 310.172 100.883C310.656 99.2891 311.344 97.9219 312.234 96.7812C313.141 95.625 314.234 94.7344 315.516 94.1094C316.797 93.4844 318.242 93.1719 319.852 93.1719C321.586 93.1719 323.008 93.5078 324.117 94.1797C325.242 94.8359 326.141 95.7578 326.812 96.9453C327.5 98.1328 328.031 99.5234 328.406 101.117C328.797 102.695 329.125 104.398 329.391 106.227V106.812C329.125 108.531 328.758 110.156 328.289 111.688C327.836 113.203 327.242 114.547 326.508 115.719C325.773 116.891 324.852 117.812 323.742 118.484C322.648 119.141 321.336 119.469 319.805 119.469C318.211 119.469 316.773 119.148 315.492 118.508C314.227 117.867 313.141 116.969 312.234 115.812C311.344 114.656 310.656 113.297 310.172 111.734C309.703 110.172 309.469 108.469 309.469 106.625ZM317.367 106.133V106.625C317.367 107.578 317.453 108.461 317.625 109.273C317.812 110.086 318.094 110.805 318.469 111.43C318.844 112.039 319.305 112.516 319.852 112.859C320.414 113.203 321.07 113.375 321.82 113.375C322.961 113.375 323.883 113.133 324.586 112.648C325.289 112.164 325.797 111.477 326.109 110.586C326.422 109.695 326.555 108.648 326.508 107.445V105.594C326.539 104.562 326.469 103.656 326.297 102.875C326.125 102.078 325.852 101.414 325.477 100.883C325.117 100.352 324.633 99.9531 324.023 99.6875C323.43 99.4062 322.711 99.2656 321.867 99.2656C321.133 99.2656 320.484 99.4375 319.922 99.7812C319.359 100.125 318.891 100.609 318.516 101.234C318.141 101.844 317.852 102.57 317.648 103.414C317.461 104.242 317.367 105.148 317.367 106.133ZM345.773 83V119H337.875V83H345.773ZM344.836 105.453L342.984 105.5C342.984 103.719 343.203 102.078 343.641 100.578C344.078 99.0781 344.703 97.7734 345.516 96.6641C346.328 95.5547 347.305 94.6953 348.445 94.0859C349.586 93.4766 350.852 93.1719 352.242 93.1719C353.492 93.1719 354.633 93.3516 355.664 93.7109C356.711 94.0703 357.609 94.6484 358.359 95.4453C359.125 96.2422 359.711 97.2812 360.117 98.5625C360.539 99.8438 360.75 101.406 360.75 103.25V119H352.805V103.203C352.805 102.172 352.656 101.375 352.359 100.812C352.078 100.234 351.672 99.8359 351.141 99.6172C350.609 99.3828 349.961 99.2656 349.195 99.2656C348.273 99.2656 347.523 99.4219 346.945 99.7344C346.367 100.047 345.922 100.484 345.609 101.047C345.312 101.594 345.109 102.242 345 102.992C344.891 103.742 344.836 104.562 344.836 105.453ZM373.477 83V119H365.555V83H373.477ZM386.695 93.6406V119H378.773V93.6406H386.695ZM378.305 87.1016C378.305 85.9766 378.711 85.0547 379.523 84.3359C380.336 83.6172 381.391 83.2578 382.688 83.2578C383.984 83.2578 385.039 83.6172 385.852 84.3359C386.664 85.0547 387.07 85.9766 387.07 87.1016C387.07 88.2266 386.664 89.1484 385.852 89.8672C385.039 90.5859 383.984 90.9453 382.688 90.9453C381.391 90.9453 380.336 90.5859 379.523 89.8672C378.711 89.1484 378.305 88.2266 378.305 87.1016ZM407.508 93.6406H414.68V118.016C414.68 120.359 414.141 122.344 413.062 123.969C411.984 125.609 410.477 126.852 408.539 127.695C406.617 128.555 404.367 128.984 401.789 128.984C400.648 128.984 399.484 128.836 398.297 128.539C397.109 128.258 396 127.836 394.969 127.273C393.938 126.711 393.07 126.016 392.367 125.188L395.672 120.547C396.312 121.266 397.117 121.875 398.086 122.375C399.055 122.891 400.195 123.148 401.508 123.148C402.648 123.148 403.602 122.945 404.367 122.539C405.148 122.133 405.742 121.539 406.148 120.758C406.555 119.992 406.758 119.062 406.758 117.969V99.6406L407.508 93.6406ZM390.656 106.625V106.133C390.656 104.211 390.891 102.461 391.359 100.883C391.844 99.2891 392.531 97.9219 393.422 96.7812C394.328 95.625 395.422 94.7344 396.703 94.1094C397.984 93.4844 399.43 93.1719 401.039 93.1719C402.773 93.1719 404.195 93.5078 405.305 94.1797C406.43 94.8359 407.328 95.7578 408 96.9453C408.688 98.1328 409.219 99.5234 409.594 101.117C409.984 102.695 410.312 104.398 410.578 106.227V106.812C410.312 108.531 409.945 110.156 409.477 111.688C409.023 113.203 408.43 114.547 407.695 115.719C406.961 116.891 406.039 117.812 404.93 118.484C403.836 119.141 402.523 119.469 400.992 119.469C399.398 119.469 397.961 119.148 396.68 118.508C395.414 117.867 394.328 116.969 393.422 115.812C392.531 114.656 391.844 113.297 391.359 111.734C390.891 110.172 390.656 108.469 390.656 106.625ZM398.555 106.133V106.625C398.555 107.578 398.641 108.461 398.812 109.273C399 110.086 399.281 110.805 399.656 111.43C400.031 112.039 400.492 112.516 401.039 112.859C401.602 113.203 402.258 113.375 403.008 113.375C404.148 113.375 405.07 113.133 405.773 112.648C406.477 112.164 406.984 111.477 407.297 110.586C407.609 109.695 407.742 108.648 407.695 107.445V105.594C407.727 104.562 407.656 103.656 407.484 102.875C407.312 102.078 407.039 101.414 406.664 100.883C406.305 100.352 405.82 99.9531 405.211 99.6875C404.617 99.4062 403.898 99.2656 403.055 99.2656C402.32 99.2656 401.672 99.4375 401.109 99.7812C400.547 100.125 400.078 100.609 399.703 101.234C399.328 101.844 399.039 102.57 398.836 103.414C398.648 104.242 398.555 105.148 398.555 106.133ZM426.961 83V119H419.062V83H426.961ZM426.023 105.453L424.172 105.5C424.172 103.719 424.391 102.078 424.828 100.578C425.266 99.0781 425.891 97.7734 426.703 96.6641C427.516 95.5547 428.492 94.6953 429.633 94.0859C430.773 93.4766 432.039 93.1719 433.43 93.1719C434.68 93.1719 435.82 93.3516 436.852 93.7109C437.898 94.0703 438.797 94.6484 439.547 95.4453C440.312 96.2422 440.898 97.2812 441.305 98.5625C441.727 99.8438 441.938 101.406 441.938 103.25V119H433.992V103.203C433.992 102.172 433.844 101.375 433.547 100.812C433.266 100.234 432.859 99.8359 432.328 99.6172C431.797 99.3828 431.148 99.2656 430.383 99.2656C429.461 99.2656 428.711 99.4219 428.133 99.7344C427.555 100.047 427.109 100.484 426.797 101.047C426.5 101.594 426.297 102.242 426.188 102.992C426.078 103.742 426.023 104.562 426.023 105.453ZM459.68 93.6406V99.125H444.398V93.6406H459.68ZM447.609 87.3359H455.508V110.727C455.508 111.398 455.586 111.922 455.742 112.297C455.898 112.656 456.164 112.914 456.539 113.07C456.93 113.211 457.445 113.281 458.086 113.281C458.539 113.281 458.914 113.273 459.211 113.258C459.508 113.227 459.789 113.188 460.055 113.141V118.789C459.383 119.008 458.68 119.172 457.945 119.281C457.211 119.406 456.43 119.469 455.602 119.469C453.914 119.469 452.469 119.203 451.266 118.672C450.078 118.141 449.172 117.305 448.547 116.164C447.922 115.023 447.609 113.539 447.609 111.711V87.3359ZM476.109 111.875C476.109 111.438 475.961 111.062 475.664 110.75C475.383 110.422 474.883 110.125 474.164 109.859C473.445 109.578 472.438 109.297 471.141 109.016C469.906 108.75 468.742 108.398 467.648 107.961C466.57 107.523 465.625 106.992 464.812 106.367C464 105.742 463.359 105 462.891 104.141C462.438 103.281 462.211 102.297 462.211 101.188C462.211 100.109 462.438 99.0938 462.891 98.1406C463.359 97.1719 464.039 96.3203 464.93 95.5859C465.836 94.8359 466.938 94.25 468.234 93.8281C469.531 93.3906 471.008 93.1719 472.664 93.1719C474.945 93.1719 476.914 93.5234 478.57 94.2266C480.227 94.9141 481.5 95.8828 482.391 97.1328C483.297 98.3672 483.75 99.7969 483.75 101.422H475.852C475.852 100.781 475.742 100.234 475.523 99.7812C475.32 99.3281 474.984 98.9844 474.516 98.75C474.047 98.5 473.422 98.375 472.641 98.375C472.094 98.375 471.594 98.4766 471.141 98.6797C470.703 98.8828 470.352 99.1641 470.086 99.5234C469.82 99.8828 469.688 100.305 469.688 100.789C469.688 101.133 469.766 101.445 469.922 101.727C470.094 101.992 470.352 102.242 470.695 102.477C471.039 102.695 471.477 102.898 472.008 103.086C472.539 103.258 473.18 103.414 473.93 103.555C475.633 103.867 477.227 104.312 478.711 104.891C480.195 105.469 481.398 106.289 482.32 107.352C483.258 108.414 483.727 109.844 483.727 111.641C483.727 112.766 483.469 113.805 482.953 114.758C482.438 115.695 481.695 116.523 480.727 117.242C479.758 117.945 478.594 118.492 477.234 118.883C475.875 119.273 474.344 119.469 472.641 119.469C470.219 119.469 468.172 119.039 466.5 118.18C464.828 117.305 463.562 116.211 462.703 114.898C461.859 113.57 461.438 112.227 461.438 110.867H468.797C468.828 111.648 469.016 112.289 469.359 112.789C469.719 113.289 470.195 113.656 470.789 113.891C471.383 114.125 472.07 114.242 472.852 114.242C473.57 114.242 474.164 114.141 474.633 113.938C475.117 113.734 475.484 113.461 475.734 113.117C475.984 112.758 476.109 112.344 476.109 111.875Z" fill="black"/>
<path d="M1134 0H1348C1356.28 0 1363 6.71573 1363 15V148C1363 156.284 1356.28 163 1348 163H1134V0Z" fill="#F56423"/>
<mask id="path-5-outside-1_3_82" maskUnits="userSpaceOnUse" x="1212.5" y="43.5" width="72" height="76" fill="black">
<rect fill="white" x="1212.5" y="43.5" width="72" height="76"/>
<path d="M1257.78 110.795L1258.17 117.033C1258.2 117.55 1257.82 118.005 1257.3 118.082C1255.41 118.359 1253.48 118.5 1251.56 118.5C1249.65 118.5 1247.72 118.359 1245.83 118.082C1245.3 118.005 1244.93 117.55 1244.96 117.033L1245.29 111.677C1241.26 110.891 1237.48 109.371 1234.05 107.148L1230.39 111.163C1230.04 111.55 1229.44 111.612 1229.01 111.305C1225.91 109.088 1223.19 106.436 1220.9 103.423C1220.59 103.006 1220.65 102.425 1221.05 102.081L1225.18 98.5235C1222.89 95.1861 1221.33 91.5191 1220.52 87.5987L1215.01 87.921C1214.48 87.9525 1214.01 87.5844 1213.93 87.0723C1213.64 85.2408 1213.5 83.3658 1213.5 81.4989C1213.5 79.6323 1213.64 77.7573 1213.93 75.9255C1214.01 75.4134 1214.48 75.037 1215.01 75.0768L1220.52 75.3991C1221.33 71.48 1222.89 67.8127 1225.18 64.4753L1221.05 60.9166C1220.65 60.5732 1220.59 59.9915 1220.9 59.5751C1223.18 56.565 1225.91 53.9132 1229.01 51.6928C1229.44 51.3858 1230.04 51.448 1230.39 51.8344L1234.05 55.8498C1237.51 53.619 1241.42 52.0541 1245.48 51.2839L1245.04 45.9743C1245 45.4495 1245.38 44.9818 1245.92 44.9043C1249.64 44.3652 1253.49 44.3652 1257.21 44.9043C1257.75 44.9818 1258.13 45.4496 1258.09 45.9743L1257.57 52.1893C1257.52 52.7401 1257.02 53.1503 1256.46 53.105C1255.89 53.0601 1255.47 52.5776 1255.52 52.0273L1255.96 46.7572C1253.05 46.4128 1250.08 46.4128 1247.17 46.7572L1247.61 52.0268C1247.66 52.546 1247.28 53.0109 1246.75 53.0949C1242.36 53.7915 1238.12 55.4843 1234.48 57.9899C1234.05 58.2849 1233.46 58.2181 1233.11 57.8373L1229.48 53.8537C1227.1 55.6511 1224.97 57.7247 1223.12 60.034L1227.22 63.565C1227.61 63.9035 1227.68 64.4749 1227.38 64.8912C1224.81 68.4236 1223.12 72.3693 1222.38 76.6188C1222.29 77.1218 1221.82 77.4795 1221.3 77.4485L1215.84 77.1288C1215.65 78.5723 1215.56 80.0384 1215.56 81.499C1215.56 82.9599 1215.65 84.4259 1215.84 85.8692L1221.3 85.5495C1221.82 85.5157 1222.29 85.8767 1222.38 86.3793C1223.12 90.6301 1224.81 94.5761 1227.38 98.1078C1227.68 98.5242 1227.61 99.0954 1227.22 99.434L1223.12 102.964C1224.97 105.276 1227.11 107.349 1229.48 109.144L1233.11 105.161C1233.46 104.779 1234.05 104.713 1234.48 105.008C1238.11 107.508 1242.17 109.143 1246.54 109.869C1247.06 109.955 1247.43 110.406 1247.4 110.915L1247.07 116.229C1250.04 116.589 1253.09 116.589 1256.06 116.229L1255.73 110.915C1255.7 110.363 1256.13 109.89 1256.7 109.857C1257.26 109.827 1257.75 110.244 1257.78 110.795ZM1279.87 67.5195C1281.52 67.5195 1282.86 68.8234 1282.86 70.4259C1282.86 72.0285 1281.52 73.3323 1279.87 73.3323C1279.49 73.3323 1279.13 73.2564 1278.8 73.131L1276 75.947C1275.8 76.142 1275.54 76.2524 1275.26 76.2524H1260.97C1260.4 76.2524 1259.94 75.8048 1259.94 75.2524C1259.94 74.7 1260.4 74.2524 1260.97 74.2524H1274.82L1277.25 71.8052C1277.02 71.3928 1276.88 70.9277 1276.88 70.4261C1276.88 68.8232 1278.22 67.5195 1279.87 67.5195ZM1278.93 70.4259C1278.93 70.9256 1279.35 71.3321 1279.87 71.3321C1280.38 71.3321 1280.8 70.9256 1280.8 70.4259C1280.8 69.9263 1280.38 69.5197 1279.87 69.5197C1279.35 69.5196 1278.93 69.9261 1278.93 70.4259ZM1268.7 64.8892L1272.51 59.5583C1272.12 59.0691 1271.89 58.4651 1271.89 57.8029C1271.89 56.2003 1273.23 54.8965 1274.87 54.8965C1276.52 54.8965 1277.86 56.2003 1277.86 57.8029C1277.86 59.4054 1276.52 60.7092 1274.87 60.7092C1274.66 60.7092 1274.45 60.6835 1274.24 60.6403L1270.08 66.4604C1269.89 66.729 1269.57 66.8895 1269.23 66.8895H1257.92C1257.35 66.8895 1256.89 66.4419 1256.89 65.8895C1256.89 65.3371 1257.35 64.8895 1257.92 64.8895L1268.7 64.8892ZM1273.94 57.8029C1273.94 58.3025 1274.36 58.7091 1274.87 58.7091C1275.39 58.7091 1275.81 58.3025 1275.81 57.8029C1275.81 57.3032 1275.39 56.8967 1274.87 56.8967C1274.36 56.8965 1273.94 57.3031 1273.94 57.8029ZM1277.62 105.196C1277.62 106.798 1276.28 108.102 1274.63 108.102C1272.98 108.102 1271.64 106.798 1271.64 105.196C1271.64 104.412 1271.96 103.703 1272.48 103.179L1268.69 97.8852H1257.92C1257.35 97.8852 1256.89 97.4376 1256.89 96.8852C1256.89 96.3328 1257.35 95.8852 1257.92 95.8852H1269.23C1269.57 95.8852 1269.89 96.0456 1270.08 96.3143L1274.37 102.315C1274.46 102.307 1274.54 102.289 1274.63 102.289C1276.28 102.289 1277.62 103.593 1277.62 105.196ZM1275.56 105.196C1275.56 104.696 1275.14 104.289 1274.63 104.289C1274.11 104.289 1273.69 104.696 1273.69 105.196C1273.69 105.695 1274.11 106.102 1274.63 106.102C1275.14 106.102 1275.56 105.695 1275.56 105.196ZM1282.61 92.8506C1282.61 94.4532 1281.27 95.757 1279.62 95.757C1277.97 95.757 1276.63 94.4532 1276.63 92.8506C1276.63 92.2267 1276.84 91.6518 1277.18 91.1777L1274.82 88.8004H1260.97C1260.4 88.8004 1259.94 88.3528 1259.94 87.8004C1259.94 87.248 1260.4 86.8004 1260.97 86.8004H1275.26C1275.54 86.8004 1275.8 86.9109 1276 87.1058L1278.91 90.0363C1279.14 89.9817 1279.37 89.9444 1279.62 89.9444C1281.27 89.9443 1282.61 91.2479 1282.61 92.8506ZM1280.55 92.8506C1280.55 92.351 1280.13 91.9444 1279.62 91.9444C1279.11 91.9444 1278.69 92.351 1278.69 92.8506C1278.69 93.3503 1279.11 93.7569 1279.62 93.7569C1280.13 93.7569 1280.55 93.3503 1280.55 92.8506ZM1283.5 81.5261C1283.5 83.1286 1282.16 84.4324 1280.51 84.4324C1279.22 84.4324 1278.14 83.6352 1277.71 82.5258H1255.16V100.204C1255.16 103.826 1252.13 106.773 1248.41 106.773C1245.68 106.773 1243.27 105.218 1242.21 102.835C1242.17 102.836 1242.13 102.837 1242.08 102.837C1238.36 102.837 1235.33 99.8896 1235.33 96.2674C1235.33 96.0939 1235.33 95.9203 1235.35 95.7475C1233.74 95.4353 1232.22 94.6326 1230.98 93.4249C1229.39 91.8756 1228.51 89.8161 1228.51 87.6253C1228.51 85.4345 1229.39 83.3749 1230.98 81.826C1231.1 81.7098 1231.23 81.6079 1231.36 81.4992C1231.23 81.3903 1231.1 81.2884 1230.98 81.1724C1229.39 79.6232 1228.51 77.5636 1228.51 75.3731C1228.51 73.1823 1229.39 71.1227 1230.98 69.5735C1232.22 68.3658 1233.74 67.563 1235.35 67.2509C1235.33 67.078 1235.33 66.9046 1235.33 66.731C1235.33 63.1085 1238.36 60.1615 1242.08 60.1615C1242.13 60.1615 1242.17 60.1618 1242.21 60.1628C1243.27 57.7799 1245.68 56.2252 1248.41 56.2252C1252.13 56.2252 1255.16 59.1721 1255.16 62.7944V80.5259H1277.71C1278.14 79.4168 1279.22 78.62 1280.51 78.62C1282.16 78.6198 1283.5 79.9235 1283.5 81.5261ZM1232.44 79.7581C1232.72 80.0356 1233.05 80.2792 1233.39 80.499H1253.11V62.7941C1253.11 60.2745 1251 58.225 1248.41 58.225C1246.68 58.225 1245.14 59.1203 1244.32 60.5297C1245.15 60.813 1245.92 61.2544 1246.59 61.8364C1246.6 61.8432 1246.6 61.8529 1246.61 61.8598C1246.99 61.6858 1247.42 61.5815 1247.87 61.5815C1249.51 61.5815 1250.86 62.8853 1250.86 64.4874C1250.86 66.09 1249.51 67.3938 1247.87 67.3938C1246.22 67.3938 1244.88 66.09 1244.88 64.4874C1244.88 64.0541 1244.98 63.6465 1245.16 63.2768C1244.3 62.5582 1243.22 62.1612 1242.08 62.1612C1239.49 62.1612 1237.38 64.2111 1237.38 66.7307C1237.38 66.8749 1237.4 67.0183 1237.41 67.1615C1238.63 67.284 1239.8 67.6579 1240.85 68.27C1241.31 67.9875 1241.85 67.8176 1242.43 67.8176C1244.08 67.8176 1245.42 69.1214 1245.42 70.7239C1245.42 72.3262 1244.08 73.6299 1242.43 73.6299C1240.78 73.6299 1239.44 72.3261 1239.44 70.7239C1239.44 70.43 1239.5 70.1516 1239.58 69.8839C1238.66 69.388 1237.63 69.1172 1236.55 69.1139C1235.06 69.1935 1233.6 69.857 1232.44 70.9873C1231.23 72.1588 1230.57 73.7162 1230.57 75.3728C1230.57 77.0293 1231.23 78.5866 1232.44 79.7581ZM1241.5 70.7241C1241.5 71.2237 1241.92 71.63 1242.43 71.63C1242.95 71.63 1243.36 71.2237 1243.36 70.7241C1243.36 70.2244 1242.95 69.8179 1242.43 69.8179C1241.92 69.8177 1241.5 70.2243 1241.5 70.7241ZM1247.87 65.3938C1248.38 65.3938 1248.8 64.9872 1248.8 64.4876C1248.8 63.9879 1248.38 63.5816 1247.87 63.5816C1247.35 63.5816 1246.93 63.9879 1246.93 64.4876C1246.93 64.9872 1247.35 65.3938 1247.87 65.3938ZM1253.11 100.204V82.499H1233.37C1233.03 82.7166 1232.72 82.9651 1232.44 83.2399C1231.23 84.4112 1230.57 85.9685 1230.57 87.6251C1230.57 89.2817 1231.23 90.8391 1232.44 92.0106C1233.6 93.1409 1235.06 93.8044 1236.55 93.884C1237.61 93.8807 1238.63 93.62 1239.54 93.1388C1239.48 92.9112 1239.44 92.6768 1239.44 92.4315C1239.44 90.8289 1240.78 89.5251 1242.43 89.5251C1244.08 89.5251 1245.42 90.8289 1245.42 92.4315C1245.42 94.0341 1244.08 95.3379 1242.43 95.3379C1241.79 95.3379 1241.2 95.1364 1240.71 94.8008C1239.7 95.3682 1238.58 95.7192 1237.41 95.8365C1237.4 95.9797 1237.38 96.1231 1237.38 96.2674C1237.38 98.787 1239.49 100.836 1242.08 100.836C1243.19 100.836 1244.26 100.455 1245.1 99.7652C1244.96 99.4261 1244.88 99.0564 1244.88 98.6677C1244.88 97.0652 1246.22 95.7614 1247.87 95.7614C1249.51 95.7614 1250.86 97.0652 1250.86 98.6677C1250.86 100.27 1249.51 101.574 1247.87 101.574C1247.37 101.574 1246.91 101.445 1246.5 101.236C1245.85 101.779 1245.11 102.198 1244.32 102.468C1245.14 103.878 1246.68 104.773 1248.41 104.773C1251 104.773 1253.11 102.724 1253.11 100.204ZM1247.87 99.5741C1248.38 99.5741 1248.8 99.1675 1248.8 98.6679C1248.8 98.1682 1248.38 97.7617 1247.87 97.7617C1247.35 97.7617 1246.93 98.1682 1246.93 98.6679C1246.93 99.1675 1247.35 99.5741 1247.87 99.5741ZM1242.43 93.3379C1242.95 93.3379 1243.36 92.9313 1243.36 92.4316C1243.36 91.932 1242.95 91.5254 1242.43 91.5254C1241.92 91.5254 1241.5 91.932 1241.5 92.4316C1241.5 92.5993 1241.55 92.7544 1241.63 92.8892C1241.65 92.9087 1241.67 92.9252 1241.68 92.9463C1241.7 92.9687 1241.71 92.9933 1241.73 93.0166C1241.9 93.2114 1242.15 93.3379 1242.43 93.3379ZM1281.44 81.5261C1281.44 81.0264 1281.02 80.6198 1280.51 80.6198C1280 80.6198 1279.58 81.0264 1279.58 81.5261C1279.58 82.0257 1280 82.4323 1280.51 82.4323C1281.02 82.4323 1281.44 82.0257 1281.44 81.5261Z"/>
</mask>
<path d="M1257.78 110.795L1258.17 117.033C1258.2 117.55 1257.82 118.005 1257.3 118.082C1255.41 118.359 1253.48 118.5 1251.56 118.5C1249.65 118.5 1247.72 118.359 1245.83 118.082C1245.3 118.005 1244.93 117.55 1244.96 117.033L1245.29 111.677C1241.26 110.891 1237.48 109.371 1234.05 107.148L1230.39 111.163C1230.04 111.55 1229.44 111.612 1229.01 111.305C1225.91 109.088 1223.19 106.436 1220.9 103.423C1220.59 103.006 1220.65 102.425 1221.05 102.081L1225.18 98.5235C1222.89 95.1861 1221.33 91.5191 1220.52 87.5987L1215.01 87.921C1214.48 87.9525 1214.01 87.5844 1213.93 87.0723C1213.64 85.2408 1213.5 83.3658 1213.5 81.4989C1213.5 79.6323 1213.64 77.7573 1213.93 75.9255C1214.01 75.4134 1214.48 75.037 1215.01 75.0768L1220.52 75.3991C1221.33 71.48 1222.89 67.8127 1225.18 64.4753L1221.05 60.9166C1220.65 60.5732 1220.59 59.9915 1220.9 59.5751C1223.18 56.565 1225.91 53.9132 1229.01 51.6928C1229.44 51.3858 1230.04 51.448 1230.39 51.8344L1234.05 55.8498C1237.51 53.619 1241.42 52.0541 1245.48 51.2839L1245.04 45.9743C1245 45.4495 1245.38 44.9818 1245.92 44.9043C1249.64 44.3652 1253.49 44.3652 1257.21 44.9043C1257.75 44.9818 1258.13 45.4496 1258.09 45.9743L1257.57 52.1893C1257.52 52.7401 1257.02 53.1503 1256.46 53.105C1255.89 53.0601 1255.47 52.5776 1255.52 52.0273L1255.96 46.7572C1253.05 46.4128 1250.08 46.4128 1247.17 46.7572L1247.61 52.0268C1247.66 52.546 1247.28 53.0109 1246.75 53.0949C1242.36 53.7915 1238.12 55.4843 1234.48 57.9899C1234.05 58.2849 1233.46 58.2181 1233.11 57.8373L1229.48 53.8537C1227.1 55.6511 1224.97 57.7247 1223.12 60.034L1227.22 63.565C1227.61 63.9035 1227.68 64.4749 1227.38 64.8912C1224.81 68.4236 1223.12 72.3693 1222.38 76.6188C1222.29 77.1218 1221.82 77.4795 1221.3 77.4485L1215.84 77.1288C1215.65 78.5723 1215.56 80.0384 1215.56 81.499C1215.56 82.9599 1215.65 84.4259 1215.84 85.8692L1221.3 85.5495C1221.82 85.5157 1222.29 85.8767 1222.38 86.3793C1223.12 90.6301 1224.81 94.5761 1227.38 98.1078C1227.68 98.5242 1227.61 99.0954 1227.22 99.434L1223.12 102.964C1224.97 105.276 1227.11 107.349 1229.48 109.144L1233.11 105.161C1233.46 104.779 1234.05 104.713 1234.48 105.008C1238.11 107.508 1242.17 109.143 1246.54 109.869C1247.06 109.955 1247.43 110.406 1247.4 110.915L1247.07 116.229C1250.04 116.589 1253.09 116.589 1256.06 116.229L1255.73 110.915C1255.7 110.363 1256.13 109.89 1256.7 109.857C1257.26 109.827 1257.75 110.244 1257.78 110.795ZM1279.87 67.5195C1281.52 67.5195 1282.86 68.8234 1282.86 70.4259C1282.86 72.0285 1281.52 73.3323 1279.87 73.3323C1279.49 73.3323 1279.13 73.2564 1278.8 73.131L1276 75.947C1275.8 76.142 1275.54 76.2524 1275.26 76.2524H1260.97C1260.4 76.2524 1259.94 75.8048 1259.94 75.2524C1259.94 74.7 1260.4 74.2524 1260.97 74.2524H1274.82L1277.25 71.8052C1277.02 71.3928 1276.88 70.9277 1276.88 70.4261C1276.88 68.8232 1278.22 67.5195 1279.87 67.5195ZM1278.93 70.4259C1278.93 70.9256 1279.35 71.3321 1279.87 71.3321C1280.38 71.3321 1280.8 70.9256 1280.8 70.4259C1280.8 69.9263 1280.38 69.5197 1279.87 69.5197C1279.35 69.5196 1278.93 69.9261 1278.93 70.4259ZM1268.7 64.8892L1272.51 59.5583C1272.12 59.0691 1271.89 58.4651 1271.89 57.8029C1271.89 56.2003 1273.23 54.8965 1274.87 54.8965C1276.52 54.8965 1277.86 56.2003 1277.86 57.8029C1277.86 59.4054 1276.52 60.7092 1274.87 60.7092C1274.66 60.7092 1274.45 60.6835 1274.24 60.6403L1270.08 66.4604C1269.89 66.729 1269.57 66.8895 1269.23 66.8895H1257.92C1257.35 66.8895 1256.89 66.4419 1256.89 65.8895C1256.89 65.3371 1257.35 64.8895 1257.92 64.8895L1268.7 64.8892ZM1273.94 57.8029C1273.94 58.3025 1274.36 58.7091 1274.87 58.7091C1275.39 58.7091 1275.81 58.3025 1275.81 57.8029C1275.81 57.3032 1275.39 56.8967 1274.87 56.8967C1274.36 56.8965 1273.94 57.3031 1273.94 57.8029ZM1277.62 105.196C1277.62 106.798 1276.28 108.102 1274.63 108.102C1272.98 108.102 1271.64 106.798 1271.64 105.196C1271.64 104.412 1271.96 103.703 1272.48 103.179L1268.69 97.8852H1257.92C1257.35 97.8852 1256.89 97.4376 1256.89 96.8852C1256.89 96.3328 1257.35 95.8852 1257.92 95.8852H1269.23C1269.57 95.8852 1269.89 96.0456 1270.08 96.3143L1274.37 102.315C1274.46 102.307 1274.54 102.289 1274.63 102.289C1276.28 102.289 1277.62 103.593 1277.62 105.196ZM1275.56 105.196C1275.56 104.696 1275.14 104.289 1274.63 104.289C1274.11 104.289 1273.69 104.696 1273.69 105.196C1273.69 105.695 1274.11 106.102 1274.63 106.102C1275.14 106.102 1275.56 105.695 1275.56 105.196ZM1282.61 92.8506C1282.61 94.4532 1281.27 95.757 1279.62 95.757C1277.97 95.757 1276.63 94.4532 1276.63 92.8506C1276.63 92.2267 1276.84 91.6518 1277.18 91.1777L1274.82 88.8004H1260.97C1260.4 88.8004 1259.94 88.3528 1259.94 87.8004C1259.94 87.248 1260.4 86.8004 1260.97 86.8004H1275.26C1275.54 86.8004 1275.8 86.9109 1276 87.1058L1278.91 90.0363C1279.14 89.9817 1279.37 89.9444 1279.62 89.9444C1281.27 89.9443 1282.61 91.2479 1282.61 92.8506ZM1280.55 92.8506C1280.55 92.351 1280.13 91.9444 1279.62 91.9444C1279.11 91.9444 1278.69 92.351 1278.69 92.8506C1278.69 93.3503 1279.11 93.7569 1279.62 93.7569C1280.13 93.7569 1280.55 93.3503 1280.55 92.8506ZM1283.5 81.5261C1283.5 83.1286 1282.16 84.4324 1280.51 84.4324C1279.22 84.4324 1278.14 83.6352 1277.71 82.5258H1255.16V100.204C1255.16 103.826 1252.13 106.773 1248.41 106.773C1245.68 106.773 1243.27 105.218 1242.21 102.835C1242.17 102.836 1242.13 102.837 1242.08 102.837C1238.36 102.837 1235.33 99.8896 1235.33 96.2674C1235.33 96.0939 1235.33 95.9203 1235.35 95.7475C1233.74 95.4353 1232.22 94.6326 1230.98 93.4249C1229.39 91.8756 1228.51 89.8161 1228.51 87.6253C1228.51 85.4345 1229.39 83.3749 1230.98 81.826C1231.1 81.7098 1231.23 81.6079 1231.36 81.4992C1231.23 81.3903 1231.1 81.2884 1230.98 81.1724C1229.39 79.6232 1228.51 77.5636 1228.51 75.3731C1228.51 73.1823 1229.39 71.1227 1230.98 69.5735C1232.22 68.3658 1233.74 67.563 1235.35 67.2509C1235.33 67.078 1235.33 66.9046 1235.33 66.731C1235.33 63.1085 1238.36 60.1615 1242.08 60.1615C1242.13 60.1615 1242.17 60.1618 1242.21 60.1628C1243.27 57.7799 1245.68 56.2252 1248.41 56.2252C1252.13 56.2252 1255.16 59.1721 1255.16 62.7944V80.5259H1277.71C1278.14 79.4168 1279.22 78.62 1280.51 78.62C1282.16 78.6198 1283.5 79.9235 1283.5 81.5261ZM1232.44 79.7581C1232.72 80.0356 1233.05 80.2792 1233.39 80.499H1253.11V62.7941C1253.11 60.2745 1251 58.225 1248.41 58.225C1246.68 58.225 1245.14 59.1203 1244.32 60.5297C1245.15 60.813 1245.92 61.2544 1246.59 61.8364C1246.6 61.8432 1246.6 61.8529 1246.61 61.8598C1246.99 61.6858 1247.42 61.5815 1247.87 61.5815C1249.51 61.5815 1250.86 62.8853 1250.86 64.4874C1250.86 66.09 1249.51 67.3938 1247.87 67.3938C1246.22 67.3938 1244.88 66.09 1244.88 64.4874C1244.88 64.0541 1244.98 63.6465 1245.16 63.2768C1244.3 62.5582 1243.22 62.1612 1242.08 62.1612C1239.49 62.1612 1237.38 64.2111 1237.38 66.7307C1237.38 66.8749 1237.4 67.0183 1237.41 67.1615C1238.63 67.284 1239.8 67.6579 1240.85 68.27C1241.31 67.9875 1241.85 67.8176 1242.43 67.8176C1244.08 67.8176 1245.42 69.1214 1245.42 70.7239C1245.42 72.3262 1244.08 73.6299 1242.43 73.6299C1240.78 73.6299 1239.44 72.3261 1239.44 70.7239C1239.44 70.43 1239.5 70.1516 1239.58 69.8839C1238.66 69.388 1237.63 69.1172 1236.55 69.1139C1235.06 69.1935 1233.6 69.857 1232.44 70.9873C1231.23 72.1588 1230.57 73.7162 1230.57 75.3728C1230.57 77.0293 1231.23 78.5866 1232.44 79.7581ZM1241.5 70.7241C1241.5 71.2237 1241.92 71.63 1242.43 71.63C1242.95 71.63 1243.36 71.2237 1243.36 70.7241C1243.36 70.2244 1242.95 69.8179 1242.43 69.8179C1241.92 69.8177 1241.5 70.2243 1241.5 70.7241ZM1247.87 65.3938C1248.38 65.3938 1248.8 64.9872 1248.8 64.4876C1248.8 63.9879 1248.38 63.5816 1247.87 63.5816C1247.35 63.5816 1246.93 63.9879 1246.93 64.4876C1246.93 64.9872 1247.35 65.3938 1247.87 65.3938ZM1253.11 100.204V82.499H1233.37C1233.03 82.7166 1232.72 82.9651 1232.44 83.2399C1231.23 84.4112 1230.57 85.9685 1230.57 87.6251C1230.57 89.2817 1231.23 90.8391 1232.44 92.0106C1233.6 93.1409 1235.06 93.8044 1236.55 93.884C1237.61 93.8807 1238.63 93.62 1239.54 93.1388C1239.48 92.9112 1239.44 92.6768 1239.44 92.4315C1239.44 90.8289 1240.78 89.5251 1242.43 89.5251C1244.08 89.5251 1245.42 90.8289 1245.42 92.4315C1245.42 94.0341 1244.08 95.3379 1242.43 95.3379C1241.79 95.3379 1241.2 95.1364 1240.71 94.8008C1239.7 95.3682 1238.58 95.7192 1237.41 95.8365C1237.4 95.9797 1237.38 96.1231 1237.38 96.2674C1237.38 98.787 1239.49 100.836 1242.08 100.836C1243.19 100.836 1244.26 100.455 1245.1 99.7652C1244.96 99.4261 1244.88 99.0564 1244.88 98.6677C1244.88 97.0652 1246.22 95.7614 1247.87 95.7614C1249.51 95.7614 1250.86 97.0652 1250.86 98.6677C1250.86 100.27 1249.51 101.574 1247.87 101.574C1247.37 101.574 1246.91 101.445 1246.5 101.236C1245.85 101.779 1245.11 102.198 1244.32 102.468C1245.14 103.878 1246.68 104.773 1248.41 104.773C1251 104.773 1253.11 102.724 1253.11 100.204ZM1247.87 99.5741C1248.38 99.5741 1248.8 99.1675 1248.8 98.6679C1248.8 98.1682 1248.38 97.7617 1247.87 97.7617C1247.35 97.7617 1246.93 98.1682 1246.93 98.6679C1246.93 99.1675 1247.35 99.5741 1247.87 99.5741ZM1242.43 93.3379C1242.95 93.3379 1243.36 92.9313 1243.36 92.4316C1243.36 91.932 1242.95 91.5254 1242.43 91.5254C1241.92 91.5254 1241.5 91.932 1241.5 92.4316C1241.5 92.5993 1241.55 92.7544 1241.63 92.8892C1241.65 92.9087 1241.67 92.9252 1241.68 92.9463C1241.7 92.9687 1241.71 92.9933 1241.73 93.0166C1241.9 93.2114 1242.15 93.3379 1242.43 93.3379ZM1281.44 81.5261C1281.44 81.0264 1281.02 80.6198 1280.51 80.6198C1280 80.6198 1279.58 81.0264 1279.58 81.5261C1279.58 82.0257 1280 82.4323 1280.51 82.4323C1281.02 82.4323 1281.44 82.0257 1281.44 81.5261Z" fill="white"/>
<path d="M1257.78 110.795L1258.17 117.033C1258.2 117.55 1257.82 118.005 1257.3 118.082C1255.41 118.359 1253.48 118.5 1251.56 118.5C1249.65 118.5 1247.72 118.359 1245.83 118.082C1245.3 118.005 1244.93 117.55 1244.96 117.033L1245.29 111.677C1241.26 110.891 1237.48 109.371 1234.05 107.148L1230.39 111.163C1230.04 111.55 1229.44 111.612 1229.01 111.305C1225.91 109.088 1223.19 106.436 1220.9 103.423C1220.59 103.006 1220.65 102.425 1221.05 102.081L1225.18 98.5235C1222.89 95.1861 1221.33 91.5191 1220.52 87.5987L1215.01 87.921C1214.48 87.9525 1214.01 87.5844 1213.93 87.0723C1213.64 85.2408 1213.5 83.3658 1213.5 81.4989C1213.5 79.6323 1213.64 77.7573 1213.93 75.9255C1214.01 75.4134 1214.48 75.037 1215.01 75.0768L1220.52 75.3991C1221.33 71.48 1222.89 67.8127 1225.18 64.4753L1221.05 60.9166C1220.65 60.5732 1220.59 59.9915 1220.9 59.5751C1223.18 56.565 1225.91 53.9132 1229.01 51.6928C1229.44 51.3858 1230.04 51.448 1230.39 51.8344L1234.05 55.8498C1237.51 53.619 1241.42 52.0541 1245.48 51.2839L1245.04 45.9743C1245 45.4495 1245.38 44.9818 1245.92 44.9043C1249.64 44.3652 1253.49 44.3652 1257.21 44.9043C1257.75 44.9818 1258.13 45.4496 1258.09 45.9743L1257.57 52.1893C1257.52 52.7401 1257.02 53.1503 1256.46 53.105C1255.89 53.0601 1255.47 52.5776 1255.52 52.0273L1255.96 46.7572C1253.05 46.4128 1250.08 46.4128 1247.17 46.7572L1247.61 52.0268C1247.66 52.546 1247.28 53.0109 1246.75 53.0949C1242.36 53.7915 1238.12 55.4843 1234.48 57.9899C1234.05 58.2849 1233.46 58.2181 1233.11 57.8373L1229.48 53.8537C1227.1 55.6511 1224.97 57.7247 1223.12 60.034L1227.22 63.565C1227.61 63.9035 1227.68 64.4749 1227.38 64.8912C1224.81 68.4236 1223.12 72.3693 1222.38 76.6188C1222.29 77.1218 1221.82 77.4795 1221.3 77.4485L1215.84 77.1288C1215.65 78.5723 1215.56 80.0384 1215.56 81.499C1215.56 82.9599 1215.65 84.4259 1215.84 85.8692L1221.3 85.5495C1221.82 85.5157 1222.29 85.8767 1222.38 86.3793C1223.12 90.6301 1224.81 94.5761 1227.38 98.1078C1227.68 98.5242 1227.61 99.0954 1227.22 99.434L1223.12 102.964C1224.97 105.276 1227.11 107.349 1229.48 109.144L1233.11 105.161C1233.46 104.779 1234.05 104.713 1234.48 105.008C1238.11 107.508 1242.17 109.143 1246.54 109.869C1247.06 109.955 1247.43 110.406 1247.4 110.915L1247.07 116.229C1250.04 116.589 1253.09 116.589 1256.06 116.229L1255.73 110.915C1255.7 110.363 1256.13 109.89 1256.7 109.857C1257.26 109.827 1257.75 110.244 1257.78 110.795ZM1279.87 67.5195C1281.52 67.5195 1282.86 68.8234 1282.86 70.4259C1282.86 72.0285 1281.52 73.3323 1279.87 73.3323C1279.49 73.3323 1279.13 73.2564 1278.8 73.131L1276 75.947C1275.8 76.142 1275.54 76.2524 1275.26 76.2524H1260.97C1260.4 76.2524 1259.94 75.8048 1259.94 75.2524C1259.94 74.7 1260.4 74.2524 1260.97 74.2524H1274.82L1277.25 71.8052C1277.02 71.3928 1276.88 70.9277 1276.88 70.4261C1276.88 68.8232 1278.22 67.5195 1279.87 67.5195ZM1278.93 70.4259C1278.93 70.9256 1279.35 71.3321 1279.87 71.3321C1280.38 71.3321 1280.8 70.9256 1280.8 70.4259C1280.8 69.9263 1280.38 69.5197 1279.87 69.5197C1279.35 69.5196 1278.93 69.9261 1278.93 70.4259ZM1268.7 64.8892L1272.51 59.5583C1272.12 59.0691 1271.89 58.4651 1271.89 57.8029C1271.89 56.2003 1273.23 54.8965 1274.87 54.8965C1276.52 54.8965 1277.86 56.2003 1277.86 57.8029C1277.86 59.4054 1276.52 60.7092 1274.87 60.7092C1274.66 60.7092 1274.45 60.6835 1274.24 60.6403L1270.08 66.4604C1269.89 66.729 1269.57 66.8895 1269.23 66.8895H1257.92C1257.35 66.8895 1256.89 66.4419 1256.89 65.8895C1256.89 65.3371 1257.35 64.8895 1257.92 64.8895L1268.7 64.8892ZM1273.94 57.8029C1273.94 58.3025 1274.36 58.7091 1274.87 58.7091C1275.39 58.7091 1275.81 58.3025 1275.81 57.8029C1275.81 57.3032 1275.39 56.8967 1274.87 56.8967C1274.36 56.8965 1273.94 57.3031 1273.94 57.8029ZM1277.62 105.196C1277.62 106.798 1276.28 108.102 1274.63 108.102C1272.98 108.102 1271.64 106.798 1271.64 105.196C1271.64 104.412 1271.96 103.703 1272.48 103.179L1268.69 97.8852H1257.92C1257.35 97.8852 1256.89 97.4376 1256.89 96.8852C1256.89 96.3328 1257.35 95.8852 1257.92 95.8852H1269.23C1269.57 95.8852 1269.89 96.0456 1270.08 96.3143L1274.37 102.315C1274.46 102.307 1274.54 102.289 1274.63 102.289C1276.28 102.289 1277.62 103.593 1277.62 105.196ZM1275.56 105.196C1275.56 104.696 1275.14 104.289 1274.63 104.289C1274.11 104.289 1273.69 104.696 1273.69 105.196C1273.69 105.695 1274.11 106.102 1274.63 106.102C1275.14 106.102 1275.56 105.695 1275.56 105.196ZM1282.61 92.8506C1282.61 94.4532 1281.27 95.757 1279.62 95.757C1277.97 95.757 1276.63 94.4532 1276.63 92.8506C1276.63 92.2267 1276.84 91.6518 1277.18 91.1777L1274.82 88.8004H1260.97C1260.4 88.8004 1259.94 88.3528 1259.94 87.8004C1259.94 87.248 1260.4 86.8004 1260.97 86.8004H1275.26C1275.54 86.8004 1275.8 86.9109 1276 87.1058L1278.91 90.0363C1279.14 89.9817 1279.37 89.9444 1279.62 89.9444C1281.27 89.9443 1282.61 91.2479 1282.61 92.8506ZM1280.55 92.8506C1280.55 92.351 1280.13 91.9444 1279.62 91.9444C1279.11 91.9444 1278.69 92.351 1278.69 92.8506C1278.69 93.3503 1279.11 93.7569 1279.62 93.7569C1280.13 93.7569 1280.55 93.3503 1280.55 92.8506ZM1283.5 81.5261C1283.5 83.1286 1282.16 84.4324 1280.51 84.4324C1279.22 84.4324 1278.14 83.6352 1277.71 82.5258H1255.16V100.204C1255.16 103.826 1252.13 106.773 1248.41 106.773C1245.68 106.773 1243.27 105.218 1242.21 102.835C1242.17 102.836 1242.13 102.837 1242.08 102.837C1238.36 102.837 1235.33 99.8896 1235.33 96.2674C1235.33 96.0939 1235.33 95.9203 1235.35 95.7475C1233.74 95.4353 1232.22 94.6326 1230.98 93.4249C1229.39 91.8756 1228.51 89.8161 1228.51 87.6253C1228.51 85.4345 1229.39 83.3749 1230.98 81.826C1231.1 81.7098 1231.23 81.6079 1231.36 81.4992C1231.23 81.3903 1231.1 81.2884 1230.98 81.1724C1229.39 79.6232 1228.51 77.5636 1228.51 75.3731C1228.51 73.1823 1229.39 71.1227 1230.98 69.5735C1232.22 68.3658 1233.74 67.563 1235.35 67.2509C1235.33 67.078 1235.33 66.9046 1235.33 66.731C1235.33 63.1085 1238.36 60.1615 1242.08 60.1615C1242.13 60.1615 1242.17 60.1618 1242.21 60.1628C1243.27 57.7799 1245.68 56.2252 1248.41 56.2252C1252.13 56.2252 1255.16 59.1721 1255.16 62.7944V80.5259H1277.71C1278.14 79.4168 1279.22 78.62 1280.51 78.62C1282.16 78.6198 1283.5 79.9235 1283.5 81.5261ZM1232.44 79.7581C1232.72 80.0356 1233.05 80.2792 1233.39 80.499H1253.11V62.7941C1253.11 60.2745 1251 58.225 1248.41 58.225C1246.68 58.225 1245.14 59.1203 1244.32 60.5297C1245.15 60.813 1245.92 61.2544 1246.59 61.8364C1246.6 61.8432 1246.6 61.8529 1246.61 61.8598C1246.99 61.6858 1247.42 61.5815 1247.87 61.5815C1249.51 61.5815 1250.86 62.8853 1250.86 64.4874C1250.86 66.09 1249.51 67.3938 1247.87 67.3938C1246.22 67.3938 1244.88 66.09 1244.88 64.4874C1244.88 64.0541 1244.98 63.6465 1245.16 63.2768C1244.3 62.5582 1243.22 62.1612 1242.08 62.1612C1239.49 62.1612 1237.38 64.2111 1237.38 66.7307C1237.38 66.8749 1237.4 67.0183 1237.41 67.1615C1238.63 67.284 1239.8 67.6579 1240.85 68.27C1241.31 67.9875 1241.85 67.8176 1242.43 67.8176C1244.08 67.8176 1245.42 69.1214 1245.42 70.7239C1245.42 72.3262 1244.08 73.6299 1242.43 73.6299C1240.78 73.6299 1239.44 72.3261 1239.44 70.7239C1239.44 70.43 1239.5 70.1516 1239.58 69.8839C1238.66 69.388 1237.63 69.1172 1236.55 69.1139C1235.06 69.1935 1233.6 69.857 1232.44 70.9873C1231.23 72.1588 1230.57 73.7162 1230.57 75.3728C1230.57 77.0293 1231.23 78.5866 1232.44 79.7581ZM1241.5 70.7241C1241.5 71.2237 1241.92 71.63 1242.43 71.63C1242.95 71.63 1243.36 71.2237 1243.36 70.7241C1243.36 70.2244 1242.95 69.8179 1242.43 69.8179C1241.92 69.8177 1241.5 70.2243 1241.5 70.7241ZM1247.87 65.3938C1248.38 65.3938 1248.8 64.9872 1248.8 64.4876C1248.8 63.9879 1248.38 63.5816 1247.87 63.5816C1247.35 63.5816 1246.93 63.9879 1246.93 64.4876C1246.93 64.9872 1247.35 65.3938 1247.87 65.3938ZM1253.11 100.204V82.499H1233.37C1233.03 82.7166 1232.72 82.9651 1232.44 83.2399C1231.23 84.4112 1230.57 85.9685 1230.57 87.6251C1230.57 89.2817 1231.23 90.8391 1232.44 92.0106C1233.6 93.1409 1235.06 93.8044 1236.55 93.884C1237.61 93.8807 1238.63 93.62 1239.54 93.1388C1239.48 92.9112 1239.44 92.6768 1239.44 92.4315C1239.44 90.8289 1240.78 89.5251 1242.43 89.5251C1244.08 89.5251 1245.42 90.8289 1245.42 92.4315C1245.42 94.0341 1244.08 95.3379 1242.43 95.3379C1241.79 95.3379 1241.2 95.1364 1240.71 94.8008C1239.7 95.3682 1238.58 95.7192 1237.41 95.8365C1237.4 95.9797 1237.38 96.1231 1237.38 96.2674C1237.38 98.787 1239.49 100.836 1242.08 100.836C1243.19 100.836 1244.26 100.455 1245.1 99.7652C1244.96 99.4261 1244.88 99.0564 1244.88 98.6677C1244.88 97.0652 1246.22 95.7614 1247.87 95.7614C1249.51 95.7614 1250.86 97.0652 1250.86 98.6677C1250.86 100.27 1249.51 101.574 1247.87 101.574C1247.37 101.574 1246.91 101.445 1246.5 101.236C1245.85 101.779 1245.11 102.198 1244.32 102.468C1245.14 103.878 1246.68 104.773 1248.41 104.773C1251 104.773 1253.11 102.724 1253.11 100.204ZM1247.87 99.5741C1248.38 99.5741 1248.8 99.1675 1248.8 98.6679C1248.8 98.1682 1248.38 97.7617 1247.87 97.7617C1247.35 97.7617 1246.93 98.1682 1246.93 98.6679C1246.93 99.1675 1247.35 99.5741 1247.87 99.5741ZM1242.43 93.3379C1242.95 93.3379 1243.36 92.9313 1243.36 92.4316C1243.36 91.932 1242.95 91.5254 1242.43 91.5254C1241.92 91.5254 1241.5 91.932 1241.5 92.4316C1241.5 92.5993 1241.55 92.7544 1241.63 92.8892C1241.65 92.9087 1241.67 92.9252 1241.68 92.9463C1241.7 92.9687 1241.71 92.9933 1241.73 93.0166C1241.9 93.2114 1242.15 93.3379 1242.43 93.3379ZM1281.44 81.5261C1281.44 81.0264 1281.02 80.6198 1280.51 80.6198C1280 80.6198 1279.58 81.0264 1279.58 81.5261C1279.58 82.0257 1280 82.4323 1280.51 82.4323C1281.02 82.4323 1281.44 82.0257 1281.44 81.5261Z" stroke="white" mask="url(#path-5-outside-1_3_82)"/>
</svg>
