<svg width="1363" height="163" viewBox="0 0 1363 163" fill="none" xmlns="http://www.w3.org/2000/svg">
<path d="M0 15C0 6.71573 6.71573 0 15 0H37V163H15C6.71573 163 0 156.284 0 148V15Z" fill="#A81D0E"/>
<rect width="1097" height="163" transform="translate(37)" fill="#F0F0F0"/>
<path d="M101.906 53.9219L94.3945 51.2383V48.0859L104.602 52.375V54.6367L101.906 53.9219ZM94.3945 56.1719L101.918 53.4297L104.602 52.7852V55.0352L94.3945 59.3242V56.1719ZM113.859 46.8555L109.219 61H105.48L111.82 43.9375H114.199L113.859 46.8555ZM117.715 61L113.062 46.8555L112.688 43.9375H115.09L121.465 61H117.715ZM117.504 54.6484V57.4023H108.492V54.6484H117.504ZM128.672 61.2344C127.688 61.2344 126.805 61.0781 126.023 60.7656C125.242 60.4453 124.578 60.0039 124.031 59.4414C123.492 58.8789 123.078 58.2266 122.789 57.4844C122.5 56.7344 122.355 55.9375 122.355 55.0938V54.625C122.355 53.6641 122.492 52.7852 122.766 51.9883C123.039 51.1914 123.43 50.5 123.938 49.9141C124.453 49.3281 125.078 48.8789 125.812 48.5664C126.547 48.2461 127.375 48.0859 128.297 48.0859C129.195 48.0859 129.992 48.2344 130.688 48.5312C131.383 48.8281 131.965 49.25 132.434 49.7969C132.91 50.3438 133.27 51 133.512 51.7656C133.754 52.5234 133.875 53.3672 133.875 54.2969V55.7031H123.797V53.4531H130.559V53.1953C130.559 52.7266 130.473 52.3086 130.301 51.9414C130.137 51.5664 129.887 51.2695 129.551 51.0508C129.215 50.832 128.785 50.7227 128.262 50.7227C127.816 50.7227 127.434 50.8203 127.113 51.0156C126.793 51.2109 126.531 51.4844 126.328 51.8359C126.133 52.1875 125.984 52.6016 125.883 53.0781C125.789 53.5469 125.742 54.0625 125.742 54.625V55.0938C125.742 55.6016 125.812 56.0703 125.953 56.5C126.102 56.9297 126.309 57.3008 126.574 57.6133C126.848 57.9258 127.176 58.168 127.559 58.3398C127.949 58.5117 128.391 58.5977 128.883 58.5977C129.492 58.5977 130.059 58.4805 130.582 58.2461C131.113 58.0039 131.57 57.6406 131.953 57.1562L133.594 58.9375C133.328 59.3203 132.965 59.6875 132.504 60.0391C132.051 60.3906 131.504 60.6797 130.863 60.9062C130.223 61.125 129.492 61.2344 128.672 61.2344ZM143.824 48.3203H146.883V60.5781C146.883 61.7344 146.625 62.7148 146.109 63.5195C145.602 64.332 144.891 64.9453 143.977 65.3594C143.062 65.7812 142 65.9922 140.789 65.9922C140.258 65.9922 139.695 65.9219 139.102 65.7812C138.516 65.6406 137.953 65.4219 137.414 65.125C136.883 64.8281 136.438 64.4531 136.078 64L137.566 62.0078C137.957 62.4609 138.41 62.8125 138.926 63.0625C139.441 63.3203 140.012 63.4492 140.637 63.4492C141.246 63.4492 141.762 63.3359 142.184 63.1094C142.605 62.8906 142.93 62.5664 143.156 62.1367C143.383 61.7148 143.496 61.2031 143.496 60.6016V51.25L143.824 48.3203ZM135.293 54.8125V54.5664C135.293 53.5977 135.41 52.7188 135.645 51.9297C135.887 51.1328 136.227 50.4492 136.664 49.8789C137.109 49.3086 137.648 48.8672 138.281 48.5547C138.914 48.2422 139.629 48.0859 140.426 48.0859C141.27 48.0859 141.977 48.2422 142.547 48.5547C143.117 48.8672 143.586 49.3125 143.953 49.8906C144.32 50.4609 144.605 51.1367 144.809 51.918C145.02 52.6914 145.184 53.5391 145.301 54.4609V55C145.184 55.8828 145.008 56.7031 144.773 57.4609C144.539 58.2188 144.23 58.8828 143.848 59.4531C143.465 60.0156 142.988 60.4531 142.418 60.7656C141.855 61.0781 141.184 61.2344 140.402 61.2344C139.621 61.2344 138.914 61.0742 138.281 60.7539C137.656 60.4336 137.121 59.9844 136.676 59.4062C136.23 58.8281 135.887 58.1484 135.645 57.3672C135.41 56.5859 135.293 55.7344 135.293 54.8125ZM138.668 54.5664V54.8125C138.668 55.3359 138.719 55.8242 138.82 56.2773C138.922 56.7305 139.078 57.1328 139.289 57.4844C139.508 57.8281 139.777 58.0977 140.098 58.293C140.426 58.4805 140.812 58.5742 141.258 58.5742C141.875 58.5742 142.379 58.4453 142.77 58.1875C143.16 57.9219 143.453 57.5586 143.648 57.0977C143.844 56.6367 143.957 56.1055 143.988 55.5039V53.9688C143.973 53.4766 143.906 53.0352 143.789 52.6445C143.672 52.2461 143.508 51.9062 143.297 51.625C143.086 51.3438 142.812 51.125 142.477 50.9688C142.141 50.8125 141.742 50.7344 141.281 50.7344C140.836 50.7344 140.449 50.8359 140.121 51.0391C139.801 51.2344 139.531 51.5039 139.312 51.8477C139.102 52.1914 138.941 52.5977 138.832 53.0664C138.723 53.5273 138.668 54.0273 138.668 54.5664ZM153.07 48.3203V61H149.684V48.3203H153.07ZM149.473 45.0156C149.473 44.5234 149.645 44.1172 149.988 43.7969C150.332 43.4766 150.793 43.3164 151.371 43.3164C151.941 43.3164 152.398 43.4766 152.742 43.7969C153.094 44.1172 153.27 44.5234 153.27 45.0156C153.27 45.5078 153.094 45.9141 152.742 46.2344C152.398 46.5547 151.941 46.7148 151.371 46.7148C150.793 46.7148 150.332 46.5547 149.988 46.2344C149.645 45.9141 149.473 45.5078 149.473 45.0156ZM162.715 57.4961C162.715 57.2539 162.645 57.0352 162.504 56.8398C162.363 56.6445 162.102 56.4648 161.719 56.3008C161.344 56.1289 160.801 55.9727 160.09 55.832C159.449 55.6914 158.852 55.5156 158.297 55.3047C157.75 55.0859 157.273 54.8242 156.867 54.5195C156.469 54.2148 156.156 53.8555 155.93 53.4414C155.703 53.0195 155.59 52.5391 155.59 52C155.59 51.4688 155.703 50.9688 155.93 50.5C156.164 50.0312 156.496 49.6172 156.926 49.2578C157.363 48.8906 157.895 48.6055 158.52 48.4023C159.152 48.1914 159.863 48.0859 160.652 48.0859C161.754 48.0859 162.699 48.2617 163.488 48.6133C164.285 48.9648 164.895 49.4492 165.316 50.0664C165.746 50.6758 165.961 51.3711 165.961 52.1523H162.586C162.586 51.8242 162.516 51.5312 162.375 51.2734C162.242 51.0078 162.031 50.8008 161.742 50.6523C161.461 50.4961 161.094 50.418 160.641 50.418C160.266 50.418 159.941 50.4844 159.668 50.6172C159.395 50.7422 159.184 50.9141 159.035 51.1328C158.895 51.3438 158.824 51.5781 158.824 51.8359C158.824 52.0312 158.863 52.207 158.941 52.3633C159.027 52.5117 159.164 52.6484 159.352 52.7734C159.539 52.8984 159.781 53.0156 160.078 53.125C160.383 53.2266 160.758 53.3203 161.203 53.4062C162.117 53.5938 162.934 53.8398 163.652 54.1445C164.371 54.4414 164.941 54.8477 165.363 55.3633C165.785 55.8711 165.996 56.5391 165.996 57.3672C165.996 57.9297 165.871 58.4453 165.621 58.9141C165.371 59.3828 165.012 59.793 164.543 60.1445C164.074 60.4883 163.512 60.7578 162.855 60.9531C162.207 61.1406 161.477 61.2344 160.664 61.2344C159.484 61.2344 158.484 61.0234 157.664 60.6016C156.852 60.1797 156.234 59.6445 155.812 58.9961C155.398 58.3398 155.191 57.668 155.191 56.9805H158.391C158.406 57.4414 158.523 57.8125 158.742 58.0938C158.969 58.375 159.254 58.5781 159.598 58.7031C159.949 58.8281 160.328 58.8906 160.734 58.8906C161.172 58.8906 161.535 58.832 161.824 58.7148C162.113 58.5898 162.332 58.4258 162.48 58.2227C162.637 58.0117 162.715 57.7695 162.715 57.4961ZM172.137 43.9375V61H168.633V43.9375H172.137ZM183.246 48.3203H186.305V60.5781C186.305 61.7344 186.047 62.7148 185.531 63.5195C185.023 64.332 184.312 64.9453 183.398 65.3594C182.484 65.7812 181.422 65.9922 180.211 65.9922C179.68 65.9922 179.117 65.9219 178.523 65.7812C177.938 65.6406 177.375 65.4219 176.836 65.125C176.305 64.8281 175.859 64.4531 175.5 64L176.988 62.0078C177.379 62.4609 177.832 62.8125 178.348 63.0625C178.863 63.3203 179.434 63.4492 180.059 63.4492C180.668 63.4492 181.184 63.3359 181.605 63.1094C182.027 62.8906 182.352 62.5664 182.578 62.1367C182.805 61.7148 182.918 61.2031 182.918 60.6016V51.25L183.246 48.3203ZM174.715 54.8125V54.5664C174.715 53.5977 174.832 52.7188 175.066 51.9297C175.309 51.1328 175.648 50.4492 176.086 49.8789C176.531 49.3086 177.07 48.8672 177.703 48.5547C178.336 48.2422 179.051 48.0859 179.848 48.0859C180.691 48.0859 181.398 48.2422 181.969 48.5547C182.539 48.8672 183.008 49.3125 183.375 49.8906C183.742 50.4609 184.027 51.1367 184.23 51.918C184.441 52.6914 184.605 53.5391 184.723 54.4609V55C184.605 55.8828 184.43 56.7031 184.195 57.4609C183.961 58.2188 183.652 58.8828 183.27 59.4531C182.887 60.0156 182.41 60.4531 181.84 60.7656C181.277 61.0781 180.605 61.2344 179.824 61.2344C179.043 61.2344 178.336 61.0742 177.703 60.7539C177.078 60.4336 176.543 59.9844 176.098 59.4062C175.652 58.8281 175.309 58.1484 175.066 57.3672C174.832 56.5859 174.715 55.7344 174.715 54.8125ZM178.09 54.5664V54.8125C178.09 55.3359 178.141 55.8242 178.242 56.2773C178.344 56.7305 178.5 57.1328 178.711 57.4844C178.93 57.8281 179.199 58.0977 179.52 58.293C179.848 58.4805 180.234 58.5742 180.68 58.5742C181.297 58.5742 181.801 58.4453 182.191 58.1875C182.582 57.9219 182.875 57.5586 183.07 57.0977C183.266 56.6367 183.379 56.1055 183.41 55.5039V53.9688C183.395 53.4766 183.328 53.0352 183.211 52.6445C183.094 52.2461 182.93 51.9062 182.719 51.625C182.508 51.3438 182.234 51.125 181.898 50.9688C181.562 50.8125 181.164 50.7344 180.703 50.7344C180.258 50.7344 179.871 50.8359 179.543 51.0391C179.223 51.2344 178.953 51.5039 178.734 51.8477C178.523 52.1914 178.363 52.5977 178.254 53.0664C178.145 53.5273 178.09 54.0273 178.09 54.5664ZM192.234 51.0273V61H188.859V48.3203H192.023L192.234 51.0273ZM191.742 54.2148H190.828C190.828 53.2773 190.949 52.4336 191.191 51.6836C191.434 50.9258 191.773 50.2812 192.211 49.75C192.648 49.2109 193.168 48.8008 193.77 48.5195C194.379 48.2305 195.059 48.0859 195.809 48.0859C196.402 48.0859 196.945 48.1719 197.438 48.3438C197.93 48.5156 198.352 48.7891 198.703 49.1641C199.062 49.5391 199.336 50.0352 199.523 50.6523C199.719 51.2695 199.816 52.0234 199.816 52.9141V61H196.418V52.9023C196.418 52.3398 196.34 51.9023 196.184 51.5898C196.027 51.2773 195.797 51.0586 195.492 50.9336C195.195 50.8008 194.828 50.7344 194.391 50.7344C193.938 50.7344 193.543 50.8242 193.207 51.0039C192.879 51.1836 192.605 51.4336 192.387 51.7539C192.176 52.0664 192.016 52.4336 191.906 52.8555C191.797 53.2773 191.742 53.7305 191.742 54.2148ZM205.945 48.3203V61H202.559V48.3203H205.945ZM202.348 45.0156C202.348 44.5234 202.52 44.1172 202.863 43.7969C203.207 43.4766 203.668 43.3164 204.246 43.3164C204.816 43.3164 205.273 43.4766 205.617 43.7969C205.969 44.1172 206.145 44.5234 206.145 45.0156C206.145 45.5078 205.969 45.9141 205.617 46.2344C205.273 46.5547 204.816 46.7148 204.246 46.7148C203.668 46.7148 203.207 46.5547 202.863 46.2344C202.52 45.9141 202.348 45.5078 202.348 45.0156ZM215.59 57.4961C215.59 57.2539 215.52 57.0352 215.379 56.8398C215.238 56.6445 214.977 56.4648 214.594 56.3008C214.219 56.1289 213.676 55.9727 212.965 55.832C212.324 55.6914 211.727 55.5156 211.172 55.3047C210.625 55.0859 210.148 54.8242 209.742 54.5195C209.344 54.2148 209.031 53.8555 208.805 53.4414C208.578 53.0195 208.465 52.5391 208.465 52C208.465 51.4688 208.578 50.9688 208.805 50.5C209.039 50.0312 209.371 49.6172 209.801 49.2578C210.238 48.8906 210.77 48.6055 211.395 48.4023C212.027 48.1914 212.738 48.0859 213.527 48.0859C214.629 48.0859 215.574 48.2617 216.363 48.6133C217.16 48.9648 217.77 49.4492 218.191 50.0664C218.621 50.6758 218.836 51.3711 218.836 52.1523H215.461C215.461 51.8242 215.391 51.5312 215.25 51.2734C215.117 51.0078 214.906 50.8008 214.617 50.6523C214.336 50.4961 213.969 50.418 213.516 50.418C213.141 50.418 212.816 50.4844 212.543 50.6172C212.27 50.7422 212.059 50.9141 211.91 51.1328C211.77 51.3438 211.699 51.5781 211.699 51.8359C211.699 52.0312 211.738 52.207 211.816 52.3633C211.902 52.5117 212.039 52.6484 212.227 52.7734C212.414 52.8984 212.656 53.0156 212.953 53.125C213.258 53.2266 213.633 53.3203 214.078 53.4062C214.992 53.5938 215.809 53.8398 216.527 54.1445C217.246 54.4414 217.816 54.8477 218.238 55.3633C218.66 55.8711 218.871 56.5391 218.871 57.3672C218.871 57.9297 218.746 58.4453 218.496 58.9141C218.246 59.3828 217.887 59.793 217.418 60.1445C216.949 60.4883 216.387 60.7578 215.73 60.9531C215.082 61.1406 214.352 61.2344 213.539 61.2344C212.359 61.2344 211.359 61.0234 210.539 60.6016C209.727 60.1797 209.109 59.6445 208.688 58.9961C208.273 58.3398 208.066 57.668 208.066 56.9805H211.266C211.281 57.4414 211.398 57.8125 211.617 58.0938C211.844 58.375 212.129 58.5781 212.473 58.7031C212.824 58.8281 213.203 58.8906 213.609 58.8906C214.047 58.8906 214.41 58.832 214.699 58.7148C214.988 58.5898 215.207 58.4258 215.355 58.2227C215.512 58.0117 215.59 57.7695 215.59 57.4961Z" fill="#888888"/>
<path d="M109.219 107.422H100.734V101.07H109.219C110.375 101.07 111.312 100.875 112.031 100.484C112.75 100.094 113.273 99.5547 113.602 98.8672C113.945 98.1641 114.117 97.375 114.117 96.5C114.117 95.5625 113.945 94.6953 113.602 93.8984C113.273 93.1016 112.75 92.4609 112.031 91.9766C111.312 91.4766 110.375 91.2266 109.219 91.2266H103.828V119H95.6016V84.875H109.219C111.953 84.875 114.305 85.375 116.273 86.375C118.258 87.375 119.781 88.75 120.844 90.5C121.906 92.2344 122.438 94.2188 122.438 96.4531C122.438 98.6562 121.906 100.578 120.844 102.219C119.781 103.859 118.258 105.141 116.273 106.062C114.305 106.969 111.953 107.422 109.219 107.422ZM134.461 99.9219V119H126.562V93.6406H133.945L134.461 99.9219ZM141.961 93.4531L141.82 100.789C141.508 100.758 141.086 100.719 140.555 100.672C140.023 100.625 139.578 100.602 139.219 100.602C138.297 100.602 137.5 100.711 136.828 100.93C136.172 101.133 135.625 101.445 135.188 101.867C134.766 102.273 134.453 102.789 134.25 103.414C134.062 104.039 133.977 104.766 133.992 105.594L132.562 104.656C132.562 102.953 132.727 101.406 133.055 100.016C133.398 98.6094 133.883 97.3984 134.508 96.3828C135.133 95.3516 135.891 94.5625 136.781 94.0156C137.672 93.4531 138.672 93.1719 139.781 93.1719C140.172 93.1719 140.555 93.1953 140.93 93.2422C141.32 93.2891 141.664 93.3594 141.961 93.4531ZM142.852 106.578V106.086C142.852 104.227 143.117 102.516 143.648 100.953C144.18 99.375 144.961 98.0078 145.992 96.8516C147.023 95.6953 148.297 94.7969 149.812 94.1562C151.328 93.5 153.078 93.1719 155.062 93.1719C157.062 93.1719 158.82 93.5 160.336 94.1562C161.867 94.7969 163.148 95.6953 164.18 96.8516C165.211 98.0078 165.992 99.375 166.523 100.953C167.055 102.516 167.32 104.227 167.32 106.086V106.578C167.32 108.422 167.055 110.133 166.523 111.711C165.992 113.273 165.211 114.641 164.18 115.812C163.148 116.969 161.875 117.867 160.359 118.508C158.844 119.148 157.094 119.469 155.109 119.469C153.125 119.469 151.367 119.148 149.836 118.508C148.305 117.867 147.023 116.969 145.992 115.812C144.961 114.641 144.18 113.273 143.648 111.711C143.117 110.133 142.852 108.422 142.852 106.578ZM150.75 106.086V106.578C150.75 107.531 150.82 108.422 150.961 109.25C151.102 110.078 151.336 110.805 151.664 111.43C151.992 112.039 152.438 112.516 153 112.859C153.562 113.203 154.266 113.375 155.109 113.375C155.938 113.375 156.625 113.203 157.172 112.859C157.734 112.516 158.18 112.039 158.508 111.43C158.836 110.805 159.07 110.078 159.211 109.25C159.352 108.422 159.422 107.531 159.422 106.578V106.086C159.422 105.164 159.352 104.297 159.211 103.484C159.07 102.656 158.836 101.93 158.508 101.305C158.18 100.664 157.734 100.164 157.172 99.8047C156.609 99.4453 155.906 99.2656 155.062 99.2656C154.234 99.2656 153.539 99.4453 152.977 99.8047C152.43 100.164 151.992 100.664 151.664 101.305C151.336 101.93 151.102 102.656 150.961 103.484C150.82 104.297 150.75 105.164 150.75 106.086ZM171.422 93.6406H179.344V119.82C179.344 121.852 178.953 123.562 178.172 124.953C177.391 126.359 176.273 127.422 174.82 128.141C173.367 128.875 171.633 129.242 169.617 129.242C168.945 129.242 168.328 129.211 167.766 129.148C167.188 129.102 166.555 129 165.867 128.844V122.867C166.273 122.93 166.648 122.977 166.992 123.008C167.336 123.055 167.711 123.078 168.117 123.078C168.836 123.078 169.438 122.961 169.922 122.727C170.406 122.492 170.773 122.133 171.023 121.648C171.289 121.164 171.422 120.555 171.422 119.82V93.6406ZM170.836 87.1016C170.836 85.9766 171.242 85.0547 172.055 84.3359C172.867 83.6172 173.922 83.2578 175.219 83.2578C176.516 83.2578 177.57 83.6172 178.383 84.3359C179.195 85.0547 179.602 85.9766 179.602 87.1016C179.602 88.2266 179.195 89.1484 178.383 89.8672C177.57 90.5859 176.516 90.9453 175.219 90.9453C173.922 90.9453 172.867 90.5859 172.055 89.8672C171.242 89.1484 170.836 88.2266 170.836 87.1016ZM196.102 119.469C194.039 119.469 192.195 119.148 190.57 118.508C188.945 117.852 187.57 116.953 186.445 115.812C185.336 114.672 184.484 113.359 183.891 111.875C183.312 110.391 183.023 108.82 183.023 107.164V106.273C183.023 104.414 183.281 102.695 183.797 101.117C184.312 99.5234 185.078 98.1328 186.094 96.9453C187.109 95.7578 188.383 94.8359 189.914 94.1797C191.445 93.5078 193.227 93.1719 195.258 93.1719C197.055 93.1719 198.664 93.4609 200.086 94.0391C201.508 94.6172 202.711 95.4453 203.695 96.5234C204.695 97.6016 205.453 98.9062 205.969 100.438C206.5 101.969 206.766 103.688 206.766 105.594V108.805H186.047V103.859H199.055V103.25C199.07 102.406 198.922 101.688 198.609 101.094C198.312 100.5 197.875 100.047 197.297 99.7344C196.719 99.4219 196.016 99.2656 195.188 99.2656C194.328 99.2656 193.617 99.4531 193.055 99.8281C192.508 100.203 192.078 100.719 191.766 101.375C191.469 102.016 191.258 102.758 191.133 103.602C191.008 104.445 190.945 105.336 190.945 106.273V107.164C190.945 108.102 191.07 108.953 191.32 109.719C191.586 110.484 191.961 111.141 192.445 111.688C192.945 112.219 193.539 112.633 194.227 112.93C194.93 113.227 195.727 113.375 196.617 113.375C197.695 113.375 198.758 113.172 199.805 112.766C200.852 112.359 201.75 111.688 202.5 110.75L206.086 115.016C205.57 115.75 204.836 116.461 203.883 117.148C202.945 117.836 201.82 118.398 200.508 118.836C199.195 119.258 197.727 119.469 196.102 119.469ZM220.688 113.375C221.422 113.375 222.047 113.242 222.562 112.977C223.094 112.695 223.492 112.305 223.758 111.805C224.039 111.289 224.172 110.672 224.156 109.953H231.586C231.602 111.859 231.133 113.531 230.18 114.969C229.242 116.391 227.961 117.5 226.336 118.297C224.727 119.078 222.906 119.469 220.875 119.469C218.891 119.469 217.156 119.148 215.672 118.508C214.188 117.852 212.945 116.945 211.945 115.789C210.961 114.617 210.219 113.25 209.719 111.688C209.234 110.125 208.992 108.43 208.992 106.602V106.062C208.992 104.234 209.234 102.539 209.719 100.977C210.219 99.3984 210.961 98.0312 211.945 96.875C212.945 95.7031 214.18 94.7969 215.648 94.1562C217.133 93.5 218.859 93.1719 220.828 93.1719C222.938 93.1719 224.797 93.5703 226.406 94.3672C228.031 95.1641 229.305 96.3203 230.227 97.8359C231.148 99.3516 231.602 101.188 231.586 103.344H224.156C224.172 102.578 224.055 101.891 223.805 101.281C223.555 100.672 223.164 100.188 222.633 99.8281C222.117 99.4531 221.453 99.2656 220.641 99.2656C219.828 99.2656 219.172 99.4453 218.672 99.8047C218.172 100.164 217.789 100.664 217.523 101.305C217.273 101.93 217.102 102.648 217.008 103.461C216.93 104.273 216.891 105.141 216.891 106.062V106.602C216.891 107.539 216.93 108.422 217.008 109.25C217.102 110.062 217.281 110.781 217.547 111.406C217.812 112.016 218.195 112.5 218.695 112.859C219.195 113.203 219.859 113.375 220.688 113.375ZM248.32 93.6406V99.125H233.039V93.6406H248.32ZM236.25 87.3359H244.148V110.727C244.148 111.398 244.227 111.922 244.383 112.297C244.539 112.656 244.805 112.914 245.18 113.07C245.57 113.211 246.086 113.281 246.727 113.281C247.18 113.281 247.555 113.273 247.852 113.258C248.148 113.227 248.43 113.188 248.695 113.141V118.789C248.023 119.008 247.32 119.172 246.586 119.281C245.852 119.406 245.07 119.469 244.242 119.469C242.555 119.469 241.109 119.203 239.906 118.672C238.719 118.141 237.812 117.305 237.188 116.164C236.562 115.023 236.25 113.539 236.25 111.711V87.3359ZM292.664 101.258V102.641C292.664 105.25 292.297 107.594 291.562 109.672C290.844 111.734 289.82 113.5 288.492 114.969C287.164 116.422 285.594 117.539 283.781 118.32C281.969 119.086 279.969 119.469 277.781 119.469C275.578 119.469 273.562 119.086 271.734 118.32C269.922 117.539 268.344 116.422 267 114.969C265.672 113.5 264.641 111.734 263.906 109.672C263.188 107.594 262.828 105.25 262.828 102.641V101.258C262.828 98.6484 263.188 96.3047 263.906 94.2266C264.641 92.1484 265.664 90.3828 266.977 88.9297C268.305 87.4609 269.875 86.3438 271.688 85.5781C273.516 84.7969 275.531 84.4062 277.734 84.4062C279.922 84.4062 281.922 84.7969 283.734 85.5781C285.562 86.3438 287.141 87.4609 288.469 88.9297C289.797 90.3828 290.828 92.1484 291.562 94.2266C292.297 96.3047 292.664 98.6484 292.664 101.258ZM284.32 102.641V101.211C284.32 99.5234 284.172 98.0391 283.875 96.7578C283.594 95.4609 283.172 94.375 282.609 93.5C282.047 92.625 281.352 91.9688 280.523 91.5312C279.711 91.0781 278.781 90.8516 277.734 90.8516C276.641 90.8516 275.688 91.0781 274.875 91.5312C274.062 91.9688 273.383 92.625 272.836 93.5C272.289 94.375 271.875 95.4609 271.594 96.7578C271.328 98.0391 271.195 99.5234 271.195 101.211V102.641C271.195 104.312 271.328 105.797 271.594 107.094C271.875 108.375 272.289 109.461 272.836 110.352C273.398 111.242 274.086 111.914 274.898 112.367C275.727 112.82 276.688 113.047 277.781 113.047C278.828 113.047 279.758 112.82 280.57 112.367C281.383 111.914 282.062 111.242 282.609 110.352C283.172 109.461 283.594 108.375 283.875 107.094C284.172 105.797 284.32 104.312 284.32 102.641ZM305.695 113.586L310.688 93.6406H319.008L310.711 119H305.789L305.695 113.586ZM302.742 93.6406L307.664 113.586L307.617 119H302.672L294.398 93.6406H302.742ZM333.305 119.469C331.242 119.469 329.398 119.148 327.773 118.508C326.148 117.852 324.773 116.953 323.648 115.812C322.539 114.672 321.688 113.359 321.094 111.875C320.516 110.391 320.227 108.82 320.227 107.164V106.273C320.227 104.414 320.484 102.695 321 101.117C321.516 99.5234 322.281 98.1328 323.297 96.9453C324.312 95.7578 325.586 94.8359 327.117 94.1797C328.648 93.5078 330.43 93.1719 332.461 93.1719C334.258 93.1719 335.867 93.4609 337.289 94.0391C338.711 94.6172 339.914 95.4453 340.898 96.5234C341.898 97.6016 342.656 98.9062 343.172 100.438C343.703 101.969 343.969 103.688 343.969 105.594V108.805H323.25V103.859H336.258V103.25C336.273 102.406 336.125 101.688 335.812 101.094C335.516 100.5 335.078 100.047 334.5 99.7344C333.922 99.4219 333.219 99.2656 332.391 99.2656C331.531 99.2656 330.82 99.4531 330.258 99.8281C329.711 100.203 329.281 100.719 328.969 101.375C328.672 102.016 328.461 102.758 328.336 103.602C328.211 104.445 328.148 105.336 328.148 106.273V107.164C328.148 108.102 328.273 108.953 328.523 109.719C328.789 110.484 329.164 111.141 329.648 111.688C330.148 112.219 330.742 112.633 331.43 112.93C332.133 113.227 332.93 113.375 333.82 113.375C334.898 113.375 335.961 113.172 337.008 112.766C338.055 112.359 338.953 111.688 339.703 110.75L343.289 115.016C342.773 115.75 342.039 116.461 341.086 117.148C340.148 117.836 339.023 118.398 337.711 118.836C336.398 119.258 334.93 119.469 333.305 119.469ZM355.148 99.9219V119H347.25V93.6406H354.633L355.148 99.9219ZM362.648 93.4531L362.508 100.789C362.195 100.758 361.773 100.719 361.242 100.672C360.711 100.625 360.266 100.602 359.906 100.602C358.984 100.602 358.188 100.711 357.516 100.93C356.859 101.133 356.312 101.445 355.875 101.867C355.453 102.273 355.141 102.789 354.938 103.414C354.75 104.039 354.664 104.766 354.68 105.594L353.25 104.656C353.25 102.953 353.414 101.406 353.742 100.016C354.086 98.6094 354.57 97.3984 355.195 96.3828C355.82 95.3516 356.578 94.5625 357.469 94.0156C358.359 93.4531 359.359 93.1719 360.469 93.1719C360.859 93.1719 361.242 93.1953 361.617 93.2422C362.008 93.2891 362.352 93.3594 362.648 93.4531ZM374.93 113.586L379.922 93.6406H388.242L379.945 119H375.023L374.93 113.586ZM371.977 93.6406L376.898 113.586L376.852 119H371.906L363.633 93.6406H371.977ZM398.93 93.6406V119H391.008V93.6406H398.93ZM390.539 87.1016C390.539 85.9766 390.945 85.0547 391.758 84.3359C392.57 83.6172 393.625 83.2578 394.922 83.2578C396.219 83.2578 397.273 83.6172 398.086 84.3359C398.898 85.0547 399.305 85.9766 399.305 87.1016C399.305 88.2266 398.898 89.1484 398.086 89.8672C397.273 90.5859 396.219 90.9453 394.922 90.9453C393.625 90.9453 392.57 90.5859 391.758 89.8672C390.945 89.1484 390.539 88.2266 390.539 87.1016ZM416.086 119.469C414.023 119.469 412.18 119.148 410.555 118.508C408.93 117.852 407.555 116.953 406.43 115.812C405.32 114.672 404.469 113.359 403.875 111.875C403.297 110.391 403.008 108.82 403.008 107.164V106.273C403.008 104.414 403.266 102.695 403.781 101.117C404.297 99.5234 405.062 98.1328 406.078 96.9453C407.094 95.7578 408.367 94.8359 409.898 94.1797C411.43 93.5078 413.211 93.1719 415.242 93.1719C417.039 93.1719 418.648 93.4609 420.07 94.0391C421.492 94.6172 422.695 95.4453 423.68 96.5234C424.68 97.6016 425.438 98.9062 425.953 100.438C426.484 101.969 426.75 103.688 426.75 105.594V108.805H406.031V103.859H419.039V103.25C419.055 102.406 418.906 101.688 418.594 101.094C418.297 100.5 417.859 100.047 417.281 99.7344C416.703 99.4219 416 99.2656 415.172 99.2656C414.312 99.2656 413.602 99.4531 413.039 99.8281C412.492 100.203 412.062 100.719 411.75 101.375C411.453 102.016 411.242 102.758 411.117 103.602C410.992 104.445 410.93 105.336 410.93 106.273V107.164C410.93 108.102 411.055 108.953 411.305 109.719C411.57 110.484 411.945 111.141 412.43 111.688C412.93 112.219 413.523 112.633 414.211 112.93C414.914 113.227 415.711 113.375 416.602 113.375C417.68 113.375 418.742 113.172 419.789 112.766C420.836 112.359 421.734 111.688 422.484 110.75L426.07 115.016C425.555 115.75 424.82 116.461 423.867 117.148C422.93 117.836 421.805 118.398 420.492 118.836C419.18 119.258 417.711 119.469 416.086 119.469ZM437.672 111.453L442.359 93.6406H447.305L445.547 102.57L440.906 119H436.945L437.672 111.453ZM435.82 93.6406L438.727 111.312L439.055 119H434.25L428.25 93.6406H435.82ZM451.477 110.938L454.406 93.6406H461.977L456.023 119H451.219L451.477 110.938ZM447.867 93.6406L452.602 111.406L453.328 119H449.32L444.773 102.617L443.086 93.6406H447.867Z" fill="black"/>
<path d="M1134 0H1348C1356.28 0 1363 6.71573 1363 15V148C1363 156.284 1356.28 163 1348 163H1134V0Z" fill="#F56322"/>
<path d="M1234.26 103.786H1262.74V109.357H1234.26V103.786ZM1239.96 114.929H1257.04V120.5H1239.96V114.929ZM1248.5 42.5C1240.95 42.5 1233.71 45.4349 1228.37 50.6592C1223.03 55.8834 1220.03 62.969 1220.03 70.3571C1219.84 74.4057 1220.63 78.4412 1222.34 82.1315C1224.05 85.8219 1226.64 89.0616 1229.88 91.5843C1232.73 94.175 1234.26 95.6514 1234.26 98.2143H1239.96C1239.96 93.0886 1236.8 90.2193 1233.72 87.4614C1231.06 85.4676 1228.94 82.8658 1227.55 79.8838C1226.15 76.9019 1225.53 73.6308 1225.72 70.3571C1225.72 64.4466 1228.12 58.7781 1232.39 54.5988C1236.67 50.4194 1242.46 48.0714 1248.5 48.0714C1254.54 48.0714 1260.33 50.4194 1264.61 54.5988C1268.88 58.7781 1271.28 64.4466 1271.28 70.3571C1271.47 73.6333 1270.84 76.9059 1269.44 79.888C1268.04 82.8701 1265.92 85.4706 1263.25 87.4614C1260.2 90.2471 1257.04 93.0329 1257.04 98.2143H1262.74C1262.74 95.6514 1264.25 94.175 1267.12 91.5564C1270.36 89.0381 1272.94 85.8031 1274.66 82.1176C1276.37 78.4321 1277.16 74.4014 1276.97 70.3571C1276.97 66.6989 1276.24 63.0765 1274.81 59.6967C1273.37 56.3169 1271.28 53.2459 1268.63 50.6592C1265.99 48.0724 1262.85 46.0205 1259.4 44.6205C1255.94 43.2205 1252.24 42.5 1248.5 42.5Z" fill="white"/>
</svg>
